{
  "accessors": [
    {
      "bufferView": 2,
      "componentType": 5126,
      "count": 650,
      "max": [
        76.18695831298828,
        118.69929504394531,
        7.925464630126953
      ],
      "min": [
        -129.15744018554688,
        -107.17955017089844,
        -16.849672317504883
      ],
      "type": "VEC3"
    },
    {
      "bufferView": 2,
      "byteOffset": 7800,
      "componentType": 5126,
      "count": 650,
      "max": [
        1.0,
        1.0,
        1.0
      ],
      "min": [
        -1.0,
        -1.0,
        -1.0
      ],
      "type": "VEC3"
    },
    {
      "bufferView": 3,
      "componentType": 5126,
      "count": 650,
      "max": [
        1.0,
        1.0,
        1.0,
        1.0
      ],
      "min": [
        -0.9114291667938232,
        -1.0,
        -1.0,
        1.0
      ],
      "type": "VEC4"
    },
    {
      "bufferView": 1,
      "componentType": 5126,
      "count": 650,
      "max": [
        0.9128278493881226,
        0.9994216561317444
      ],
      "min": [
        0.0010480823693796992,
        0.011612415313720703
      ],
      "type": "VEC2"
    },
    {
      "bufferView": 0,
      "componentType": 5125,
      "count": 1710,
      "type": "SCALAR"
    },
    {
      "bufferView": 2,
      "byteOffset": 15600,
      "componentType": 5126,
      "count": 181,
      "max": [
        74.3141098022461,
        94.32987976074219,
        3.815134286880493
      ],
      "min": [
        0.0,
        -94.32987976074219,
        -3.815134286880493
      ],
      "type": "VEC3"
    },
    {
      "bufferView": 2,
      "byteOffset": 17772,
      "componentType": 5126,
      "count": 181,
      "max": [
        1.0,
        1.0,
        1.0
      ],
      "min": [
        -1.0,
        -1.0,
        -1.0
      ],
      "type": "VEC3"
    },
    {
      "bufferView": 3,
      "byteOffset": 10400,
      "componentType": 5126,
      "count": 181,
      "max": [
        1.0,
        0.8710313439369202,
        1.0,
        1.0
      ],
      "min": [
        -1.0,
        -0.8710328936576843,
        -1.0,
        1.0
      ],
      "type": "VEC4"
    },
    {
      "bufferView": 1,
      "byteOffset": 5200,
      "componentType": 5126,
      "count": 181,
      "max": [
        0.9611725807189941,
        0.973151683807373
      ],
      "min": [
        0.12758612632751465,
        0.13507580757141113
      ],
      "type": "VEC2"
    },
    {
      "bufferView": 0,
      "byteOffset": 6840,
      "componentType": 5125,
      "count": 564,
      "type": "SCALAR"
    },
    {
      "bufferView": 2,
      "byteOffset": 19944,
      "componentType": 5126,
      "count": 181,
      "max": [
        0.0,
        94.3232192993164,
        3.8148648738861084
      ],
      "min": [
        -74.3088607788086,
        -94.3232192993164,
        -3.8148648738861084
      ],
      "type": "VEC3"
    },
    {
      "bufferView": 2,
      "byteOffset": 22116,
      "componentType": 5126,
      "count": 181,
      "max": [
        1.0,
        1.0,
        1.0
      ],
      "min": [
        -1.0,
        -1.0,
        -1.0
      ],
      "type": "VEC3"
    },
    {
      "bufferView": 3,
      "byteOffset": 13296,
      "componentType": 5126,
      "count": 181,
      "max": [
        1.0,
        0.8710260987281799,
        1.0,
        1.0
      ],
      "min": [
        -1.0,
        -0.8710260987281799,
        -1.0,
        1.0
      ],
      "type": "VEC4"
    },
    {
      "bufferView": 1,
      "byteOffset": 6648,
      "componentType": 5126,
      "count": 181,
      "max": [
        0.9994216561317444,
        0.9799602031707764
      ],
      "min": [
        0.0005783404340036213,
        0.10023713111877441
      ],
      "type": "VEC2"
    },
    {
      "bufferView": 0,
      "byteOffset": 9096,
      "componentType": 5125,
      "count": 564,
      "type": "SCALAR"
    },
    {
      "bufferView": 2,
      "byteOffset": 24288,
      "componentType": 5126,
      "count": 650,
      "max": [
        76.18695831298828,
        118.69929504394531,
        7.925464630126953
      ],
      "min": [
        -129.15744018554688,
        -107.17955017089844,
        -16.849672317504883
      ],
      "type": "VEC3"
    },
    {
      "bufferView": 2,
      "byteOffset": 32088,
      "componentType": 5126,
      "count": 650,
      "max": [
        1.0,
        1.0,
        1.0
      ],
      "min": [
        -1.0,
        -1.0,
        -1.0
      ],
      "type": "VEC3"
    },
    {
      "bufferView": 3,
      "byteOffset": 16192,
      "componentType": 5126,
      "count": 650,
      "max": [
        1.0,
        1.0,
        1.0,
        1.0
      ],
      "min": [
        -0.9114291667938232,
        -1.0,
        -1.0,
        1.0
      ],
      "type": "VEC4"
    },
    {
      "bufferView": 1,
      "byteOffset": 8096,
      "componentType": 5126,
      "count": 650,
      "max": [
        0.9128278493881226,
        0.9994216561317444
      ],
      "min": [
        0.0010480823693796992,
        0.011612415313720703
      ],
      "type": "VEC2"
    },
    {
      "bufferView": 0,
      "byteOffset": 11352,
      "componentType": 5125,
      "count": 1710,
      "type": "SCALAR"
    },
    {
      "bufferView": 2,
      "byteOffset": 39888,
      "componentType": 5126,
      "count": 181,
      "max": [
        74.3141098022461,
        94.32987976074219,
        3.815134286880493
      ],
      "min": [
        0.0,
        -94.32987976074219,
        -3.815134286880493
      ],
      "type": "VEC3"
    },
    {
      "bufferView": 2,
      "byteOffset": 42060,
      "componentType": 5126,
      "count": 181,
      "max": [
        1.0,
        1.0,
        1.0
      ],
      "min": [
        -1.0,
        -1.0,
        -1.0
      ],
      "type": "VEC3"
    },
    {
      "bufferView": 3,
      "byteOffset": 26592,
      "componentType": 5126,
      "count": 181,
      "max": [
        1.0,
        0.8710313439369202,
        1.0,
        1.0
      ],
      "min": [
        -1.0,
        -0.8710328936576843,
        -1.0,
        1.0
      ],
      "type": "VEC4"
    },
    {
      "bufferView": 1,
      "byteOffset": 13296,
      "componentType": 5126,
      "count": 181,
      "max": [
        0.9611725807189941,
        0.973151683807373
      ],
      "min": [
        0.12758612632751465,
        0.13507580757141113
      ],
      "type": "VEC2"
    },
    {
      "bufferView": 0,
      "byteOffset": 18192,
      "componentType": 5125,
      "count": 564,
      "type": "SCALAR"
    },
    {
      "bufferView": 2,
      "byteOffset": 44232,
      "componentType": 5126,
      "count": 181,
      "max": [
        0.0,
        94.3232192993164,
        3.8148648738861084
      ],
      "min": [
        -74.3088607788086,
        -94.3232192993164,
        -3.8148648738861084
      ],
      "type": "VEC3"
    },
    {
      "bufferView": 2,
      "byteOffset": 46404,
      "componentType": 5126,
      "count": 181,
      "max": [
        1.0,
        1.0,
        1.0
      ],
      "min": [
        -1.0,
        -1.0,
        -1.0
      ],
      "type": "VEC3"
    },
    {
      "bufferView": 3,
      "byteOffset": 29488,
      "componentType": 5126,
      "count": 181,
      "max": [
        1.0,
        0.8710260987281799,
        1.0,
        1.0
      ],
      "min": [
        -1.0,
        -0.8710260987281799,
        -1.0,
        1.0
      ],
      "type": "VEC4"
    },
    {
      "bufferView": 1,
      "byteOffset": 14744,
      "componentType": 5126,
      "count": 181,
      "max": [
        0.9994216561317444,
        0.9799602031707764
      ],
      "min": [
        0.0005783404340036213,
        0.10023713111877441
      ],
      "type": "VEC2"
    },
    {
      "bufferView": 0,
      "byteOffset": 20448,
      "componentType": 5125,
      "count": 564,
      "type": "SCALAR"
    },
    {
      "bufferView": 4,
      "componentType": 5126,
      "count": 45,
      "max": [
        1.4666666984558105
      ],
      "min": [
        0.0
      ],
      "type": "SCALAR"
    },
    {
      "bufferView": 5,
      "componentType": 5126,
      "count": 45,
      "max": [
        -83.47909545898438,
        -1.9199576377868652,
        -1.1352144479751587
      ],
      "min": [
        -157.40560913085938,
        -1.9199576377868652,
        -1.1352144479751587
      ],
      "type": "VEC3"
    },
    {
      "bufferView": 4,
      "byteOffset": 180,
      "componentType": 5126,
      "count": 45,
      "max": [
        1.4666666984558105
      ],
      "min": [
        0.0
      ],
      "type": "SCALAR"
    },
    {
      "bufferView": 5,
      "byteOffset": 540,
      "componentType": 5126,
      "count": 45,
      "max": [
        141.2242889404297,
        -1.9199576377868652,
        -1.1352144479751587
      ],
      "min": [
        65.82139587402344,
        -1.9199576377868652,
        -1.1352144479751587
      ],
      "type": "VEC3"
    }
  ],
  "animations": [
    {
      "channels": [
        {
          "sampler": 0,
          "target": {
            "node": 7,
            "path": "translation"
          }
        },
        {
          "sampler": 1,
          "target": {
            "node": 9,
            "path": "translation"
          }
        }
      ],
      "name": "01",
      "samplers": [
        {
          "input": 30,
          "interpolation": "LINEAR",
          "output": 31
        },
        {
          "input": 32,
          "interpolation": "LINEAR",
          "output": 33
        }
      ]
    }
  ],
  "asset": {
    "extras": {
      "author": "adventurer (https://sketchfab.com/ahmagh2e)",
      "license": "CC-BY-4.0 (http://creativecommons.org/licenses/by/4.0/)",
      "source": "https://sketchfab.com/3d-models/elevator-building-406ac9aa824e44399e57ce9a82256c54",
      "title": "Elevator Building"
    },
    "generator": "Sketchfab-15.79.0",
    "version": "2.0"
  },
  "bufferViews": [
    {
      "buffer": 0,
      "byteLength": 22704,
      "name": "floatBufferViews",
      "target": 34963
    },
    {
      "buffer": 0,
      "byteLength": 16192,
      "byteOffset": 22704,
      "byteStride": 8,
      "name": "floatBufferViews",
      "target": 34962
    },
    {
      "buffer": 0,
      "byteLength": 48576,
      "byteOffset": 38896,
      "byteStride": 12,
      "name": "floatBufferViews",
      "target": 34962
    },
    {
      "buffer": 0,
      "byteLength": 32384,
      "byteOffset": 87472,
      "byteStride": 16,
      "name": "floatBufferViews",
      "target": 34962
    },
    {
      "buffer": 0,
      "byteLength": 360,
      "byteOffset": 119856,
      "name": "floatBufferViews"
    },
    {
      "buffer": 0,
      "byteLength": 1080,
      "byteOffset": 120216,
      "byteStride": 12,
      "name": "floatBufferViews"
    }
  ],
  "buffers": [
    {
      "byteLength": 121296,
      "uri": "scene.bin"
    }
  ],
  "extensionsUsed": [
    "KHR_materials_emissive_strength"
  ],
  "images": [
    {
      "uri": "textures/material_baseColor.png"
    },
    {
      "uri": "textures/material_metallicRoughness.png"
    },
    {
      "uri": "textures/material_emissive.png"
    },
    {
      "uri": "textures/material_normal.png"
    }
  ],
  "materials": [
    {
      "doubleSided": true,
      "emissiveFactor": [
        1.0,
        1.0,
        1.0
      ],
      "emissiveTexture": {
        "index": 2
      },
      "extensions": {
        "KHR_materials_emissive_strength": {
          "emissiveStrength": 4.617156928478257
        }
      },
      "name": "material",
      "normalTexture": {
        "index": 3
      },
      "pbrMetallicRoughness": {
        "baseColorTexture": {
          "index": 0
        },
        "metallicRoughnessTexture": {
          "index": 1
        }
      }
    }
  ],
  "meshes": [
    {
      "name": "BASE_01_0",
      "primitives": [
        {
          "attributes": {
            "NORMAL": 1,
            "POSITION": 0,
            "TANGENT": 2,
            "TEXCOORD_0": 3
          },
          "indices": 4,
          "material": 0,
          "mode": 4
        }
      ]
    },
    {
      "name": "R_01_0",
      "primitives": [
        {
          "attributes": {
            "NORMAL": 6,
            "POSITION": 5,
            "TANGENT": 7,
            "TEXCOORD_0": 8
          },
          "indices": 9,
          "material": 0,
          "mode": 4
        }
      ]
    },
    {
      "name": "L_01_0",
      "primitives": [
        {
          "attributes": {
            "NORMAL": 11,
            "POSITION": 10,
            "TANGENT": 12,
            "TEXCOORD_0": 13
          },
          "indices": 14,
          "material": 0,
          "mode": 4
        }
      ]
    },
    {
      "name": "BASE_2_01_0",
      "primitives": [
        {
          "attributes": {
            "NORMAL": 16,
            "POSITION": 15,
            "TANGENT": 17,
            "TEXCOORD_0": 18
          },
          "indices": 19,
          "material": 0,
          "mode": 4
        }
      ]
    },
    {
      "name": "R_2_01_0",
      "primitives": [
        {
          "attributes": {
            "NORMAL": 21,
            "POSITION": 20,
            "TANGENT": 22,
            "TEXCOORD_0": 23
          },
          "indices": 24,
          "material": 0,
          "mode": 4
        }
      ]
    },
    {
      "name": "L_2_01_0",
      "primitives": [
        {
          "attributes": {
            "NORMAL": 26,
            "POSITION": 25,
            "TANGENT": 27,
            "TEXCOORD_0": 28
          },
          "indices": 29,
          "material": 0,
          "mode": 4
        }
      ]
    }
  ],
  "nodes": [
    {
      "children": [
        1
      ],
      "matrix": [
        1.0,
        0.0,
        0.0,
        0.0,
        0.0,
        2.220446049250313e-16,
        -1.0,
        0.0,
        0.0,
        1.0,
        2.220446049250313e-16,
        0.0,
        0.0,
        0.0,
        0.0,
        1.0
      ],
      "name": "Sketchfab_model"
    },
    {
      "children": [
        2
      ],
      "matrix": [
        0.009999999776482582,
        0.0,
        0.0,
        0.0,
        0.0,
        0.0,
        0.009999999776482582,
        0.0,
        0.0,
        -0.009999999776482582,
        0.0,
        0.0,
        0.0,
        0.0,
        0.0,
        1.0
      ],
      "name": "a233dc7d89924785a636a5cba0aecf35.fbx"
    },
    {
      "children": [
        3
      ],
      "name": "Object_2"
    },
    {
      "children": [
        4,
        11
      ],
      "name": "RootNode"
    },
    {
      "children": [
        5,
        7,
        9
      ],
      "name": "Null",
      "translation": [
        8.491182327270508,
        103.33963012695313,
        0.9903455972671509
      ]
    },
    {
      "children": [
        6
      ],
      "name": "BASE",
      "translation": [
        17.65770149230957,
        3.8399152755737305,
        2.2704288959503174
      ]
    },
    {
      "mesh": 0,
      "name": "BASE_01_0"
    },
    {
      "children": [
        8
      ],
      "name": "R",
      "translation": [
        -83.47909545898438,
        -1.9199576377868652,
        -1.1352144479751587
      ]
    },
    {
      "mesh": 1,
      "name": "R_01_0"
    },
    {
      "children": [
        10
      ],
      "name": "L",
      "translation": [
        65.82139587402344,
        -1.9199576377868652,
        -1.1352144479751587
      ]
    },
    {
      "mesh": 2,
      "name": "L_01_0"
    },
    {
      "children": [
        12,
        14,
        16
      ],
      "name": "Null_1",
      "translation": [
        -293.24609375,
        103.33963012695313,
        0.9903455972671509
      ]
    },
    {
      "children": [
        13
      ],
      "name": "BASE_2",
      "translation": [
        17.65770149230957,
        3.8399152755737305,
        2.2704288959503174
      ]
    },
    {
      "mesh": 3,
      "name": "BASE_2_01_0"
    },
    {
      "children": [
        15
      ],
      "name": "R_2",
      "translation": [
        -83.47909545898438,
        -1.9199576377868652,
        -1.1352144479751587
      ]
    },
    {
      "mesh": 4,
      "name": "R_2_01_0"
    },
    {
      "children": [
        17
      ],
      "name": "L_2",
      "translation": [
        65.82139587402344,
        -1.9199576377868652,
        -1.1352144479751587
      ]
    },
    {
      "mesh": 5,
      "name": "L_2_01_0"
    }
  ],
  "samplers": [
    {
      "magFilter": 9729,
      "minFilter": 9987,
      "wrapS": 10497,
      "wrapT": 10497
    }
  ],
  "scene": 0,
  "scenes": [
    {
      "name": "Sketchfab_Scene",
      "nodes": [
        0
      ]
    }
  ],
  "textures": [
    {
      "sampler": 0,
      "source": 0
    },
    {
      "sampler": 0,
      "source": 1
    },
    {
      "sampler": 0,
      "source": 2
    },
    {
      "sampler": 0,
      "source": 3
    }
  ]
}
