{
  "accessors": [
    {
      "bufferView": 2,
      "componentType": 5126,
      "count": 44,
      "max": [
        0.5,
        0.25,
        1.0
      ],
      "min": [
        -0.5,
        -0.25,
        -1.0
      ],
      "type": "VEC3"
    },
    {
      "bufferView": 2,
      "byteOffset": 528,
      "componentType": 5126,
      "count": 44,
      "max": [
        1.0,
        1.0,
        1.0
      ],
      "min": [
        -1.0,
        -1.0,
        -1.0
      ],
      "type": "VEC3"
    },
    {
      "bufferView": 1,
      "componentType": 5126,
      "count": 44,
      "max": [
        0.9782596230506897,
        1.0
      ],
      "min": [
        0.1571924388408661,
        0.0
      ],
      "type": "VEC2"
    },
    {
      "bufferView": 0,
      "componentType": 5125,
      "count": 78,
      "type": "SCALAR"
    },
    {
      "bufferView": 2,
      "byteOffset": 1056,
      "componentType": 5126,
      "count": 4,
      "max": [
        0.47006335854530334,
        -0.20446249842643738,
        0.970063328742981
      ],
      "min": [
        -0.47006335854530334,
        -0.20446249842643738,
        -0.970063328742981
      ],
      "type": "VEC3"
    },
    {
      "bufferView": 2,
      "byteOffset": 1104,
      "componentType": 5126,
      "count": 4,
      "max": [
        0.0,
        -1.0,
        0.0
      ],
      "min": [
        0.0,
        -1.0,
        0.0
      ],
      "type": "VEC3"
    },
    {
      "bufferView": 1,
      "byteOffset": 352,
      "componentType": 5126,
      "count": 4,
      "max": [
        0.6745303869247437,
        0.863460898399353
      ],
      "min": [
        0.32596883177757263,
        0.14413931965827942
      ],
      "type": "VEC2"
    },
    {
      "bufferView": 0,
      "byteOffset": 312,
      "componentType": 5125,
      "count": 6,
      "type": "SCALAR"
    },
    {
      "bufferView": 2,
      "byteOffset": 1152,
      "componentType": 5126,
      "count": 68,
      "max": [
        0.25,
        0.125,
        0.5
      ],
      "min": [
        -0.25,
        -0.16288720071315765,
        -0.5
      ],
      "type": "VEC3"
    },
    {
      "bufferView": 2,
      "byteOffset": 1968,
      "componentType": 5126,
      "count": 68,
      "max": [
        1.0,
        1.0,
        1.0
      ],
      "min": [
        -1.0,
        -1.0,
        -1.0
      ],
      "type": "VEC3"
    },
    {
      "bufferView": 1,
      "byteOffset": 384,
      "componentType": 5126,
      "count": 68,
      "max": [
        0.9087249040603638,
        0.9062914848327637
      ],
      "min": [
        0.3327966034412384,
        0.6688138246536255
      ],
      "type": "VEC2"
    },
    {
      "bufferView": 0,
      "byteOffset": 336,
      "componentType": 5125,
      "count": 126,
      "type": "SCALAR"
    },
    {
      "bufferView": 2,
      "byteOffset": 2784,
      "componentType": 5126,
      "count": 4,
      "max": [
        0.16195273399353027,
        -0.12340326607227325,
        0.4119527041912079
      ],
      "min": [
        -0.16195273399353027,
        -0.12340326607227325,
        -0.4119527041912079
      ],
      "type": "VEC3"
    },
    {
      "bufferView": 2,
      "byteOffset": 2832,
      "componentType": 5126,
      "count": 4,
      "max": [
        0.0,
        -1.0,
        0.0
      ],
      "min": [
        0.0,
        -1.0,
        0.0
      ],
      "type": "VEC3"
    },
    {
      "bufferView": 1,
      "byteOffset": 928,
      "componentType": 5126,
      "count": 4,
      "max": [
        0.6468831300735474,
        0.8415865302085876
      ],
      "min": [
        0.3630051612854004,
        0.11949729919433594
      ],
      "type": "VEC2"
    },
    {
      "bufferView": 0,
      "byteOffset": 840,
      "componentType": 5125,
      "count": 6,
      "type": "SCALAR"
    },
    {
      "bufferView": 2,
      "byteOffset": 2880,
      "componentType": 5126,
      "count": 11544,
      "max": [
        1.7485771179199219,
        0.2623583674430847,
        3.3656256198883057
      ],
      "min": [
        -1.7475255727767944,
        -0.07692424952983856,
        1.6028759479522705
      ],
      "type": "VEC3"
    },
    {
      "bufferView": 2,
      "byteOffset": 141408,
      "componentType": 5126,
      "count": 11544,
      "max": [
        0.9999996423721313,
        1.0,
        0.9999997615814209
      ],
      "min": [
        -0.9999996423721313,
        -1.0,
        -0.9999997615814209
      ],
      "type": "VEC3"
    },
    {
      "bufferView": 1,
      "byteOffset": 960,
      "componentType": 5126,
      "count": 11544,
      "max": [
        1.0,
        1.0
      ],
      "min": [
        0.0,
        0.0
      ],
      "type": "VEC2"
    },
    {
      "bufferView": 0,
      "byteOffset": 864,
      "componentType": 5125,
      "count": 63864,
      "type": "SCALAR"
    },
    {
      "bufferView": 2,
      "byteOffset": 279936,
      "componentType": 5126,
      "count": 1716,
      "max": [
        0.6600000262260437,
        0.43220677971839905,
        4.362102508544922
      ],
      "min": [
        -0.6599875688552856,
        -0.08779322355985641,
        2.3408946990966797
      ],
      "type": "VEC3"
    },
    {
      "bufferView": 2,
      "byteOffset": 300528,
      "componentType": 5126,
      "count": 1716,
      "max": [
        1.0,
        1.0,
        1.0
      ],
      "min": [
        -1.0,
        -1.0,
        -1.0
      ],
      "type": "VEC3"
    },
    {
      "bufferView": 1,
      "byteOffset": 93312,
      "componentType": 5126,
      "count": 1716,
      "max": [
        1.0,
        1.0
      ],
      "min": [
        0.0,
        0.0
      ],
      "type": "VEC2"
    },
    {
      "bufferView": 0,
      "byteOffset": 256320,
      "componentType": 5125,
      "count": 9432,
      "type": "SCALAR"
    },
    {
      "bufferView": 2,
      "byteOffset": 321120,
      "componentType": 5126,
      "count": 2416,
      "max": [
        0.5400000214576721,
        0.040000006556510925,
        2.33449649810791
      ],
      "min": [
        -0.5400000214576721,
        -0.040000010281801224,
        1.7594373226165771
      ],
      "type": "VEC3"
    },
    {
      "bufferView": 2,
      "byteOffset": 350112,
      "componentType": 5126,
      "count": 2416,
      "max": [
        1.0,
        1.0,
        1.0
      ],
      "min": [
        -1.0,
        -1.0,
        -1.0
      ],
      "type": "VEC3"
    },
    {
      "bufferView": 1,
      "byteOffset": 107040,
      "componentType": 5126,
      "count": 2416,
      "max": [
        1.0,
        1.0
      ],
      "min": [
        0.0,
        0.0
      ],
      "type": "VEC2"
    },
    {
      "bufferView": 0,
      "byteOffset": 294048,
      "componentType": 5125,
      "count": 13236,
      "type": "SCALAR"
    },
    {
      "bufferView": 2,
      "byteOffset": 379104,
      "componentType": 5126,
      "count": 136,
      "max": [
        1.0,
        1.0,
        1.0
      ],
      "min": [
        -1.0,
        -1.0,
        -1.0
      ],
      "type": "VEC3"
    },
    {
      "bufferView": 2,
      "byteOffset": 380736,
      "componentType": 5126,
      "count": 136,
      "max": [
        1.0,
        1.0,
        1.0
      ],
      "min": [
        -1.0,
        -1.0,
        -1.0
      ],
      "type": "VEC3"
    },
    {
      "bufferView": 1,
      "byteOffset": 126368,
      "componentType": 5126,
      "count": 136,
      "max": [
        0.803442120552063,
        0.668813943862915
      ],
      "min": [
        0.0,
        0.0
      ],
      "type": "VEC2"
    },
    {
      "bufferView": 0,
      "byteOffset": 346992,
      "componentType": 5125,
      "count": 372,
      "type": "SCALAR"
    },
    {
      "bufferView": 2,
      "byteOffset": 382368,
      "componentType": 5126,
      "count": 68,
      "max": [
        0.25,
        0.125,
        0.5
      ],
      "min": [
        -0.25,
        -0.16288720071315765,
        -0.5
      ],
      "type": "VEC3"
    },
    {
      "bufferView": 2,
      "byteOffset": 383184,
      "componentType": 5126,
      "count": 68,
      "max": [
        1.0,
        1.0,
        1.0
      ],
      "min": [
        -1.0,
        -1.0,
        -1.0
      ],
      "type": "VEC3"
    },
    {
      "bufferView": 1,
      "byteOffset": 127456,
      "componentType": 5126,
      "count": 68,
      "max": [
        0.9087249040603638,
        0.9062914848327637
      ],
      "min": [
        0.3327966034412384,
        0.6688138246536255
      ],
      "type": "VEC2"
    },
    {
      "bufferView": 0,
      "byteOffset": 348480,
      "componentType": 5125,
      "count": 126,
      "type": "SCALAR"
    },
    {
      "bufferView": 2,
      "byteOffset": 384000,
      "componentType": 5126,
      "count": 4,
      "max": [
        0.16195273399353027,
        -0.12340326607227325,
        0.4119527041912079
      ],
      "min": [
        -0.16195273399353027,
        -0.12340326607227325,
        -0.4119527041912079
      ],
      "type": "VEC3"
    },
    {
      "bufferView": 2,
      "byteOffset": 384048,
      "componentType": 5126,
      "count": 4,
      "max": [
        0.0,
        -1.0,
        0.0
      ],
      "min": [
        0.0,
        -1.0,
        0.0
      ],
      "type": "VEC3"
    },
    {
      "bufferView": 1,
      "byteOffset": 128000,
      "componentType": 5126,
      "count": 4,
      "max": [
        0.6468831300735474,
        0.8415865302085876
      ],
      "min": [
        0.3630051612854004,
        0.11949729919433594
      ],
      "type": "VEC2"
    },
    {
      "bufferView": 0,
      "byteOffset": 348984,
      "componentType": 5125,
      "count": 6,
      "type": "SCALAR"
    },
    {
      "bufferView": 2,
      "byteOffset": 384096,
      "componentType": 5126,
      "count": 44,
      "max": [
        0.5,
        0.25,
        1.0
      ],
      "min": [
        -0.5,
        -0.25,
        -1.0
      ],
      "type": "VEC3"
    },
    {
      "bufferView": 2,
      "byteOffset": 384624,
      "componentType": 5126,
      "count": 44,
      "max": [
        1.0,
        1.0,
        1.0
      ],
      "min": [
        -1.0,
        -1.0,
        -1.0
      ],
      "type": "VEC3"
    },
    {
      "bufferView": 1,
      "byteOffset": 128032,
      "componentType": 5126,
      "count": 44,
      "max": [
        0.9782596230506897,
        1.0
      ],
      "min": [
        0.1571924388408661,
        0.0
      ],
      "type": "VEC2"
    },
    {
      "bufferView": 0,
      "byteOffset": 349008,
      "componentType": 5125,
      "count": 78,
      "type": "SCALAR"
    },
    {
      "bufferView": 2,
      "byteOffset": 385152,
      "componentType": 5126,
      "count": 4,
      "max": [
        0.47006335854530334,
        -0.20446249842643738,
        0.970063328742981
      ],
      "min": [
        -0.47006335854530334,
        -0.20446249842643738,
        -0.970063328742981
      ],
      "type": "VEC3"
    },
    {
      "bufferView": 2,
      "byteOffset": 385200,
      "componentType": 5126,
      "count": 4,
      "max": [
        0.0,
        -1.0,
        0.0
      ],
      "min": [
        0.0,
        -1.0,
        0.0
      ],
      "type": "VEC3"
    },
    {
      "bufferView": 1,
      "byteOffset": 128384,
      "componentType": 5126,
      "count": 4,
      "max": [
        0.6745303869247437,
        0.863460898399353
      ],
      "min": [
        0.32596883177757263,
        0.14413931965827942
      ],
      "type": "VEC2"
    },
    {
      "bufferView": 0,
      "byteOffset": 349320,
      "componentType": 5125,
      "count": 6,
      "type": "SCALAR"
    }
  ],
  "asset": {
    "extras": {
      "author": "YapGamedev (https://sketchfab.com/yapgamedev)",
      "license": "CC-BY-4.0 (http://creativecommons.org/licenses/by/4.0/)",
      "source": "https://sketchfab.com/3d-models/low-poly-electrical-panel-8aa749b828aa4189bc99c8dd6bb7314d",
      "title": "Low Poly Electrical Panel"
    },
    "generator": "Sketchfab-15.36.0",
    "version": "2.0"
  },
  "bufferViews": [
    {
      "buffer": 0,
      "byteLength": 349344,
      "name": "floatBufferViews",
      "target": 34963
    },
    {
      "buffer": 0,
      "byteLength": 128416,
      "byteOffset": 349344,
      "byteStride": 8,
      "name": "floatBufferViews",
      "target": 34962
    },
    {
      "buffer": 0,
      "byteLength": 385248,
      "byteOffset": 477760,
      "byteStride": 12,
      "name": "floatBufferViews",
      "target": 34962
    }
  ],
  "buffers": [
    {
      "byteLength": 863008,
      "uri": "scene.bin"
    }
  ],
  "extensionsUsed": [
    "KHR_materials_specular"
  ],
  "images": [
    {
      "uri": "textures/NurbsPath__0_baseColor.png"
    },
    {
      "uri": "textures/body_baseColor.png"
    },
    {
      "uri": "textures/face.001_baseColor.png"
    }
  ],
  "materials": [
    {
      "doubleSided": true,
      "extensions": {
        "KHR_materials_specular": {
          "specularColorFactor": [
            1.0,
            1.0,
            1.0
          ],
          "specularFactor": 0.0
        }
      },
      "name": "NurbsPath__0",
      "pbrMetallicRoughness": {
        "baseColorTexture": {
          "index": 0
        },
        "roughnessFactor": 0.4490990504742546
      }
    },
    {
      "doubleSided": true,
      "extensions": {
        "KHR_materials_specular": {
          "specularColorFactor": [
            1.0,
            1.0,
            1.0
          ],
          "specularFactor": 1.0
        }
      },
      "name": "body",
      "pbrMetallicRoughness": {
        "baseColorTexture": {
          "index": 1
        },
        "metallicFactor": 0.8620637116306771,
        "roughnessFactor": 0.31549283657070615
      }
    },
    {
      "doubleSided": true,
      "extensions": {
        "KHR_materials_specular": {
          "specularColorFactor": [
            1.0,
            1.0,
            1.0
          ],
          "specularFactor": 0.0
        }
      },
      "name": "face.001",
      "pbrMetallicRoughness": {
        "baseColorTexture": {
          "index": 2
        },
        "metallicFactor": 0.6859464296669087,
        "roughnessFactor": 0.4233677453450855
      }
    },
    {
      "doubleSided": true,
      "name": "face",
      "pbrMetallicRoughness": {
        "baseColorTexture": {
          "index": 2
        },
        "metallicFactor": 0.0,
        "roughnessFactor": 0.8211145618000169
      }
    }
  ],
  "meshes": [
    {
      "name": "Cube.001_body_0",
      "primitives": [
        {
          "attributes": {
            "NORMAL": 1,
            "POSITION": 0,
            "TEXCOORD_0": 2
          },
          "indices": 3,
          "material": 1,
          "mode": 4
        }
      ]
    },
    {
      "name": "Cube.001_face.001_0",
      "primitives": [
        {
          "attributes": {
            "NORMAL": 5,
            "POSITION": 4,
            "TEXCOORD_0": 6
          },
          "indices": 7,
          "material": 2,
          "mode": 4
        }
      ]
    },
    {
      "name": "Cube.003_body_0",
      "primitives": [
        {
          "attributes": {
            "NORMAL": 9,
            "POSITION": 8,
            "TEXCOORD_0": 10
          },
          "indices": 11,
          "material": 1,
          "mode": 4
        }
      ]
    },
    {
      "name": "Cube.003_face_0",
      "primitives": [
        {
          "attributes": {
            "NORMAL": 13,
            "POSITION": 12,
            "TEXCOORD_0": 14
          },
          "indices": 15,
          "material": 3,
          "mode": 4
        }
      ]
    },
    {
      "name": "NurbsPath__0",
      "primitives": [
        {
          "attributes": {
            "NORMAL": 17,
            "POSITION": 16,
            "TEXCOORD_0": 18
          },
          "indices": 19,
          "material": 0,
          "mode": 4
        }
      ]
    },
    {
      "name": "NurbsPath.001__0",
      "primitives": [
        {
          "attributes": {
            "NORMAL": 21,
            "POSITION": 20,
            "TEXCOORD_0": 22
          },
          "indices": 23,
          "material": 0,
          "mode": 4
        }
      ]
    },
    {
      "name": "NurbsPath.002__0",
      "primitives": [
        {
          "attributes": {
            "NORMAL": 25,
            "POSITION": 24,
            "TEXCOORD_0": 26
          },
          "indices": 27,
          "material": 0,
          "mode": 4
        }
      ]
    },
    {
      "name": "tambalan__0",
      "primitives": [
        {
          "attributes": {
            "NORMAL": 29,
            "POSITION": 28,
            "TEXCOORD_0": 30
          },
          "indices": 31,
          "material": 0,
          "mode": 4
        }
      ]
    },
    {
      "name": "Cube.002_body_0",
      "primitives": [
        {
          "attributes": {
            "NORMAL": 33,
            "POSITION": 32,
            "TEXCOORD_0": 34
          },
          "indices": 35,
          "material": 1,
          "mode": 4
        }
      ]
    },
    {
      "name": "Cube.002_face_0",
      "primitives": [
        {
          "attributes": {
            "NORMAL": 37,
            "POSITION": 36,
            "TEXCOORD_0": 38
          },
          "indices": 39,
          "material": 3,
          "mode": 4
        }
      ]
    },
    {
      "name": "Cube.004_body_0",
      "primitives": [
        {
          "attributes": {
            "NORMAL": 41,
            "POSITION": 40,
            "TEXCOORD_0": 42
          },
          "indices": 43,
          "material": 1,
          "mode": 4
        }
      ]
    },
    {
      "name": "Cube.004_face.001_0",
      "primitives": [
        {
          "attributes": {
            "NORMAL": 45,
            "POSITION": 44,
            "TEXCOORD_0": 46
          },
          "indices": 47,
          "material": 2,
          "mode": 4
        }
      ]
    }
  ],
  "nodes": [
    {
      "children": [
        1
      ],
      "matrix": [
        1.0,
        0.0,
        0.0,
        0.0,
        0.0,
        2.220446049250313e-16,
        -1.0,
        0.0,
        0.0,
        1.0,
        2.220446049250313e-16,
        0.0,
        0.0,
        0.0,
        0.0,
        1.0
      ],
      "name": "Sketchfab_model"
    },
    {
      "children": [
        2
      ],
      "matrix": [
        0.009999999776482582,
        0.0,
        0.0,
        0.0,
        0.0,
        0.0,
        0.009999999776482582,
        0.0,
        0.0,
        -0.009999999776482582,
        0.0,
        0.0,
        0.0,
        0.0,
        0.0,
        1.0
      ],
      "name": "992008b3d5c345f7a608c041bea91520.fbx"
    },
    {
      "children": [
        3,
        6,
        9,
        11,
        13,
        15,
        17,
        20
      ],
      "name": "RootNode"
    },
    {
      "children": [
        4,
        5
      ],
      "matrix": [
        100.0,
        0.0,
        0.0,
        0.0,
        -0.0,
        -1.629206793918314e-05,
        -99.99999999999868,
        0.0,
        0.0,
        99.99999999999868,
        -1.629206793918314e-05,
        0.0,
        -209.99998474121094,
        250.0,
        25.0,
        1.0
      ],
      "name": "Cube.001"
    },
    {
      "mesh": 0,
      "name": "Cube.001_body_0"
    },
    {
      "mesh": 1,
      "name": "Cube.001_face.001_0"
    },
    {
      "children": [
        7,
        8
      ],
      "matrix": [
        100.0,
        0.0,
        0.0,
        0.0,
        -0.0,
        -1.629206793918314e-05,
        -99.99999999999868,
        0.0,
        0.0,
        99.99999999999868,
        -1.629206793918314e-05,
        0.0,
        -60.000003814697266,
        200.0,
        12.5,
        1.0
      ],
      "name": "Cube.003"
    },
    {
      "mesh": 2,
      "name": "Cube.003_body_0"
    },
    {
      "mesh": 3,
      "name": "Cube.003_face_0"
    },
    {
      "children": [
        10
      ],
      "matrix": [
        100.0,
        0.0,
        0.0,
        0.0,
        0.0,
        -1.629206793918314e-05,
        -99.99999999999868,
        0.0,
        0.0,
        99.99999999999868,
        -1.629206793918314e-05,
        0.0,
        0.0,
        0.0,
        10.482558250427246,
        1.0
      ],
      "name": "NurbsPath"
    },
    {
      "mesh": 4,
      "name": "NurbsPath__0"
    },
    {
      "children": [
        12
      ],
      "matrix": [
        100.0,
        0.0,
        0.0,
        0.0,
        0.0,
        -1.629206793918314e-05,
        -99.99999999999868,
        0.0,
        0.0,
        99.99999999999868,
        -1.629206793918314e-05,
        0.0,
        0.0,
        0.0,
        14.584429740905762,
        1.0
      ],
      "name": "NurbsPath.001"
    },
    {
      "mesh": 5,
      "name": "NurbsPath.001__0"
    },
    {
      "children": [
        14
      ],
      "matrix": [
        100.0,
        0.0,
        0.0,
        0.0,
        0.0,
        -1.629206793918314e-05,
        -99.99999999999868,
        0.0,
        0.0,
        99.99999999999868,
        -1.629206793918314e-05,
        0.0,
        0.0,
        0.0,
        11.39409065246582,
        1.0
      ],
      "name": "NurbsPath.002"
    },
    {
      "mesh": 6,
      "name": "NurbsPath.002__0"
    },
    {
      "children": [
        16
      ],
      "matrix": [
        3.571101070955889e-07,
        4.730066776275613,
        -2.8193384913634866e-07,
        0.0,
        1.3344935714188412e-06,
        -2.819339499637863e-07,
        -4.7300667762754385,
        0.0,
        -9.926031112670476,
        7.493943345054574e-07,
        -2.8004308495412476e-06,
        0.0,
        -2.381028175354004,
        179.98585510253906,
        11.339986801147461,
        1.0
      ],
      "name": "tambalan"
    },
    {
      "mesh": 7,
      "name": "tambalan__0"
    },
    {
      "children": [
        18,
        19
      ],
      "matrix": [
        100.0,
        0.0,
        0.0,
        0.0,
        0.0,
        -1.629206793918314e-05,
        -99.99999999999868,
        0.0,
        0.0,
        99.99999999999868,
        -1.629206793918314e-05,
        0.0,
        60.000003814697266,
        200.0,
        12.5,
        1.0
      ],
      "name": "Cube.002"
    },
    {
      "mesh": 8,
      "name": "Cube.002_body_0"
    },
    {
      "mesh": 9,
      "name": "Cube.002_face_0"
    },
    {
      "children": [
        21,
        22
      ],
      "matrix": [
        100.0,
        0.0,
        0.0,
        0.0,
        0.0,
        -1.629206793918314e-05,
        -99.99999999999868,
        0.0,
        0.0,
        99.99999999999868,
        -1.629206793918314e-05,
        0.0,
        200.0,
        250.0,
        25.0,
        1.0
      ],
      "name": "Cube.004"
    },
    {
      "mesh": 10,
      "name": "Cube.004_body_0"
    },
    {
      "mesh": 11,
      "name": "Cube.004_face.001_0"
    }
  ],
  "samplers": [
    {
      "magFilter": 9729,
      "minFilter": 9987,
      "wrapS": 10497,
      "wrapT": 10497
    }
  ],
  "scene": 0,
  "scenes": [
    {
      "name": "Sketchfab_Scene",
      "nodes": [
        0
      ]
    }
  ],
  "textures": [
    {
      "sampler": 0,
      "source": 0
    },
    {
      "sampler": 0,
      "source": 1
    },
    {
      "sampler": 0,
      "source": 2
    }
  ]
}
