{
  "accessors": [
    {
      "bufferView": 2,
      "componentType": 5126,
      "count": 32,
      "max": [
        1.0,
        1.0,
        0.796248733997345
      ],
      "min": [
        -1.0,
        -1.0,
        -1.0
      ],
      "type": "VEC3"
    },
    {
      "bufferView": 2,
      "byteOffset": 384,
      "componentType": 5126,
      "count": 32,
      "max": [
        1.0,
        1.0,
        1.0
      ],
      "min": [
        -1.0,
        -1.0,
        -1.0
      ],
      "type": "VEC3"
    },
    {
      "bufferView": 1,
      "componentType": 5126,
      "count": 32,
      "max": [
        6.907589435577393,
        5.52191686630249
      ],
      "min": [
        -6.220386981964111,
        -4.526787281036377
      ],
      "type": "VEC2"
    },
    {
      "bufferView": 0,
      "componentType": 5125,
      "count": 57,
      "type": "SCALAR"
    },
    {
      "bufferView": 2,
      "byteOffset": 768,
      "componentType": 5126,
      "count": 35,
      "max": [
        1.0,
        0.7525973916053772,
        0.5
      ],
      "min": [
        0.9494948983192444,
        -0.75,
        -1.0
      ],
      "type": "VEC3"
    },
    {
      "bufferView": 2,
      "byteOffset": 1188,
      "componentType": 5126,
      "count": 35,
      "max": [
        1.0,
        1.0,
        0.0
      ],
      "min": [
        -1.0,
        -1.0,
        -1.0
      ],
      "type": "VEC3"
    },
    {
      "bufferView": 1,
      "byteOffset": 256,
      "componentType": 5126,
      "count": 35,
      "max": [
        5.657589435577393,
        3.771916389465332
      ],
      "min": [
        -1.8424105644226074,
        -4.526787281036377
      ],
      "type": "VEC2"
    },
    {
      "bufferView": 0,
      "byteOffset": 228,
      "componentType": 5125,
      "count": 60,
      "type": "SCALAR"
    },
    {
      "bufferView": 2,
      "byteOffset": 1608,
      "componentType": 5126,
      "count": 27,
      "max": [
        1.0,
        1.0025973320007324,
        0.796248733997345
      ],
      "min": [
        -1.0,
        -1.0,
        -1.0
      ],
      "type": "VEC3"
    },
    {
      "bufferView": 2,
      "byteOffset": 1932,
      "componentType": 5126,
      "count": 27,
      "max": [
        1.0,
        1.0,
        0.0
      ],
      "min": [
        -1.0,
        -1.0,
        0.0
      ],
      "type": "VEC3"
    },
    {
      "bufferView": 1,
      "byteOffset": 536,
      "componentType": 5126,
      "count": 27,
      "max": [
        6.907589435577393,
        4.454456329345703
      ],
      "min": [
        -6.220386981964111,
        -4.526787281036377
      ],
      "type": "VEC2"
    },
    {
      "bufferView": 0,
      "byteOffset": 468,
      "componentType": 5125,
      "count": 45,
      "type": "SCALAR"
    },
    {
      "bufferView": 2,
      "byteOffset": 2256,
      "componentType": 5126,
      "count": 24,
      "max": [
        0.01683497428894043,
        0.32499998807907104,
        0.699999988079071
      ],
      "min": [
        -0.016835033893585205,
        -0.32499998807907104,
        -0.699999988079071
      ],
      "type": "VEC3"
    },
    {
      "bufferView": 2,
      "byteOffset": 2544,
      "componentType": 5126,
      "count": 24,
      "max": [
        1.0,
        1.0,
        1.0
      ],
      "min": [
        -1.0,
        -1.0,
        -1.0
      ],
      "type": "VEC3"
    },
    {
      "bufferView": 1,
      "byteOffset": 752,
      "componentType": 5126,
      "count": 24,
      "max": [
        0.4375,
        0.6388888359069824
      ],
      "min": [
        0.0,
        0.0
      ],
      "type": "VEC2"
    },
    {
      "bufferView": 0,
      "byteOffset": 648,
      "componentType": 5125,
      "count": 36,
      "type": "SCALAR"
    },
    {
      "bufferView": 2,
      "byteOffset": 2832,
      "componentType": 5126,
      "count": 24,
      "max": [
        0.016835017129778862,
        0.32499998807907104,
        0.699999988079071
      ],
      "min": [
        0.0,
        -0.32499998807907104,
        -0.699999988079071
      ],
      "type": "VEC3"
    },
    {
      "bufferView": 2,
      "byteOffset": 3120,
      "componentType": 5126,
      "count": 24,
      "max": [
        1.0,
        1.0,
        1.0
      ],
      "min": [
        -1.0,
        -1.0,
        -1.0
      ],
      "type": "VEC3"
    },
    {
      "bufferView": 1,
      "byteOffset": 944,
      "componentType": 5126,
      "count": 24,
      "max": [
        0.4375,
        0.6249999403953552
      ],
      "min": [
        0.375,
        0.611111044883728
      ],
      "type": "VEC2"
    },
    {
      "bufferView": 0,
      "byteOffset": 792,
      "componentType": 5125,
      "count": 36,
      "type": "SCALAR"
    },
    {
      "bufferView": 2,
      "byteOffset": 3408,
      "componentType": 5126,
      "count": 20,
      "max": [
        1.0,
        1.0,
        1.0
      ],
      "min": [
        -1.0,
        -1.0,
        -1.0
      ],
      "type": "VEC3"
    },
    {
      "bufferView": 2,
      "byteOffset": 3648,
      "componentType": 5126,
      "count": 20,
      "max": [
        1.0,
        1.0,
        1.0
      ],
      "min": [
        0.0,
        -1.0,
        -1.0
      ],
      "type": "VEC3"
    },
    {
      "bufferView": 1,
      "byteOffset": 1136,
      "componentType": 5126,
      "count": 20,
      "max": [
        0.875,
        1.0
      ],
      "min": [
        0.125,
        0.25
      ],
      "type": "VEC2"
    },
    {
      "bufferView": 0,
      "byteOffset": 936,
      "componentType": 5125,
      "count": 30,
      "type": "SCALAR"
    },
    {
      "bufferView": 2,
      "byteOffset": 3888,
      "componentType": 5126,
      "count": 18,
      "max": [
        1.333956241607666,
        0.7402332425117493,
        0.7849957942962646
      ],
      "min": [
        0.9971985816955566,
        -0.7402325868606567,
        -0.784995436668396
      ],
      "type": "VEC3"
    },
    {
      "bufferView": 2,
      "byteOffset": 4104,
      "componentType": 5126,
      "count": 18,
      "max": [
        1.0,
        0.9045047163963318,
        0.42646369338035583
      ],
      "min": [
        -1.0,
        -0.9045047163963318,
        -1.0
      ],
      "type": "VEC3"
    },
    {
      "bufferView": 1,
      "byteOffset": 1296,
      "componentType": 5126,
      "count": 18,
      "max": [
        1.0,
        1.0
      ],
      "min": [
        0.0,
        0.0
      ],
      "type": "VEC2"
    },
    {
      "bufferView": 0,
      "byteOffset": 1056,
      "componentType": 5125,
      "count": 24,
      "type": "SCALAR"
    },
    {
      "bufferView": 2,
      "byteOffset": 4320,
      "componentType": 5126,
      "count": 20,
      "max": [
        1.0,
        1.0,
        1.0
      ],
      "min": [
        -1.0,
        -1.0,
        -1.0
      ],
      "type": "VEC3"
    },
    {
      "bufferView": 2,
      "byteOffset": 4560,
      "componentType": 5126,
      "count": 20,
      "max": [
        1.0,
        1.0,
        1.0
      ],
      "min": [
        0.0,
        -1.0,
        -1.0
      ],
      "type": "VEC3"
    },
    {
      "bufferView": 1,
      "byteOffset": 1440,
      "componentType": 5126,
      "count": 20,
      "max": [
        0.875,
        1.0
      ],
      "min": [
        0.125,
        0.25
      ],
      "type": "VEC2"
    },
    {
      "bufferView": 0,
      "byteOffset": 1152,
      "componentType": 5125,
      "count": 30,
      "type": "SCALAR"
    },
    {
      "bufferView": 2,
      "byteOffset": 4800,
      "componentType": 5126,
      "count": 18,
      "max": [
        1.333956241607666,
        0.7402332425117493,
        0.7849957942962646
      ],
      "min": [
        0.9971985816955566,
        -0.7402325868606567,
        -0.784995436668396
      ],
      "type": "VEC3"
    },
    {
      "bufferView": 2,
      "byteOffset": 5016,
      "componentType": 5126,
      "count": 18,
      "max": [
        1.0,
        0.9045047163963318,
        0.42646369338035583
      ],
      "min": [
        -1.0,
        -0.9045047163963318,
        -1.0
      ],
      "type": "VEC3"
    },
    {
      "bufferView": 1,
      "byteOffset": 1600,
      "componentType": 5126,
      "count": 18,
      "max": [
        1.0,
        1.0
      ],
      "min": [
        0.0,
        0.0
      ],
      "type": "VEC2"
    },
    {
      "bufferView": 0,
      "byteOffset": 1272,
      "componentType": 5125,
      "count": 24,
      "type": "SCALAR"
    },
    {
      "bufferView": 2,
      "byteOffset": 5232,
      "componentType": 5126,
      "count": 20,
      "max": [
        1.0,
        1.0,
        1.0
      ],
      "min": [
        -1.0,
        -1.0,
        -1.0
      ],
      "type": "VEC3"
    },
    {
      "bufferView": 2,
      "byteOffset": 5472,
      "componentType": 5126,
      "count": 20,
      "max": [
        1.0,
        1.0,
        1.0
      ],
      "min": [
        0.0,
        -1.0,
        -1.0
      ],
      "type": "VEC3"
    },
    {
      "bufferView": 1,
      "byteOffset": 1744,
      "componentType": 5126,
      "count": 20,
      "max": [
        0.875,
        1.0
      ],
      "min": [
        0.125,
        0.25
      ],
      "type": "VEC2"
    },
    {
      "bufferView": 0,
      "byteOffset": 1368,
      "componentType": 5125,
      "count": 30,
      "type": "SCALAR"
    }
  ],
  "asset": {
    "extras": {
      "author": "Trueno (https://sketchfab.com/_trueno)",
      "license": "CC-BY-4.0 (http://creativecommons.org/licenses/by/4.0/)",
      "source": "https://sketchfab.com/3d-models/elevator-5710f9606049441ba1bc1ea6e58a00e2",
      "title": "Elevator"
    },
    "generator": "Sketchfab-15.12.0",
    "version": "2.0"
  },
  "bufferViews": [
    {
      "buffer": 0,
      "byteLength": 1488,
      "name": "floatBufferViews",
      "target": 34963
    },
    {
      "buffer": 0,
      "byteLength": 1904,
      "byteOffset": 1488,
      "byteStride": 8,
      "name": "floatBufferViews",
      "target": 34962
    },
    {
      "buffer": 0,
      "byteLength": 5712,
      "byteOffset": 3392,
      "byteStride": 12,
      "name": "floatBufferViews",
      "target": 34962
    }
  ],
  "buffers": [
    {
      "byteLength": 9104,
      "uri": "scene.bin"
    }
  ],
  "extensionsUsed": [
    "KHR_materials_specular"
  ],
  "materials": [
    {
      "doubleSided": true,
      "extensions": {
        "KHR_materials_specular": {
          "specularColorFactor": [
            1.0,
            1.0,
            1.0
          ],
          "specularFactor": 1.0
        }
      },
      "name": "Door__0",
      "pbrMetallicRoughness": {
        "baseColorFactor": [
          0.11673372093150068,
          0.11673372093150068,
          0.11673372093150068,
          1.0
        ]
      }
    },
    {
      "doubleSided": true,
      "name": "Material",
      "pbrMetallicRoughness": {
        "baseColorFactor": [
          0.19413198274092813,
          0.19413198274092813,
          0.19413198274092813,
          1.0
        ],
        "metallicFactor": 0.0,
        "roughnessFactor": 0.8040408205773457
      }
    },
    {
      "doubleSided": true,
      "name": "Material.001",
      "pbrMetallicRoughness": {
        "baseColorFactor": [
          0.04489504918001053,
          0.04489504918001053,
          0.04489504918001053,
          1.0
        ],
        "metallicFactor": 0.0,
        "roughnessFactor": 0.8211145618000169
      }
    },
    {
      "doubleSided": true,
      "name": "Material.002",
      "pbrMetallicRoughness": {
        "metallicFactor": 0.0,
        "roughnessFactor": 0.8211145618000169
      }
    },
    {
      "doubleSided": true,
      "name": "Material.003",
      "pbrMetallicRoughness": {
        "baseColorFactor": [
          0.8406186566761162,
          0.940665205793594,
          0.27840987009205365,
          1.0
        ],
        "metallicFactor": 0.0,
        "roughnessFactor": 0.8211145618000169
      }
    }
  ],
  "meshes": [
    {
      "name": "Elevator_Material_0",
      "primitives": [
        {
          "attributes": {
            "NORMAL": 1,
            "POSITION": 0,
            "TEXCOORD_0": 2
          },
          "indices": 3,
          "material": 1,
          "mode": 4
        }
      ]
    },
    {
      "name": "Elevator_Material.001_0",
      "primitives": [
        {
          "attributes": {
            "NORMAL": 5,
            "POSITION": 4,
            "TEXCOORD_0": 6
          },
          "indices": 7,
          "material": 2,
          "mode": 4
        }
      ]
    },
    {
      "name": "Elevator_Material.002_0",
      "primitives": [
        {
          "attributes": {
            "NORMAL": 9,
            "POSITION": 8,
            "TEXCOORD_0": 10
          },
          "indices": 11,
          "material": 3,
          "mode": 4
        }
      ]
    },
    {
      "name": "Door__0",
      "primitives": [
        {
          "attributes": {
            "NORMAL": 13,
            "POSITION": 12,
            "TEXCOORD_0": 14
          },
          "indices": 15,
          "material": 0,
          "mode": 4
        }
      ]
    },
    {
      "name": "Door.001__0",
      "primitives": [
        {
          "attributes": {
            "NORMAL": 17,
            "POSITION": 16,
            "TEXCOORD_0": 18
          },
          "indices": 19,
          "material": 0,
          "mode": 4
        }
      ]
    },
    {
      "name": "B_Up_Material.003_0",
      "primitives": [
        {
          "attributes": {
            "NORMAL": 21,
            "POSITION": 20,
            "TEXCOORD_0": 22
          },
          "indices": 23,
          "material": 4,
          "mode": 4
        }
      ]
    },
    {
      "name": "B_Up_Material.001_0",
      "primitives": [
        {
          "attributes": {
            "NORMAL": 25,
            "POSITION": 24,
            "TEXCOORD_0": 26
          },
          "indices": 27,
          "material": 2,
          "mode": 4
        }
      ]
    },
    {
      "name": "B_Down_Material.003_0",
      "primitives": [
        {
          "attributes": {
            "NORMAL": 29,
            "POSITION": 28,
            "TEXCOORD_0": 30
          },
          "indices": 31,
          "material": 4,
          "mode": 4
        }
      ]
    },
    {
      "name": "B_Down_Material.001_0",
      "primitives": [
        {
          "attributes": {
            "NORMAL": 33,
            "POSITION": 32,
            "TEXCOORD_0": 34
          },
          "indices": 35,
          "material": 2,
          "mode": 4
        }
      ]
    },
    {
      "name": "Top__0",
      "primitives": [
        {
          "attributes": {
            "NORMAL": 37,
            "POSITION": 36,
            "TEXCOORD_0": 38
          },
          "indices": 39,
          "material": 0,
          "mode": 4
        }
      ]
    }
  ],
  "nodes": [
    {
      "children": [
        1
      ],
      "matrix": [
        1.0,
        0.0,
        0.0,
        0.0,
        0.0,
        2.220446049250313e-16,
        -1.0,
        0.0,
        0.0,
        1.0,
        2.220446049250313e-16,
        0.0,
        0.0,
        0.0,
        0.0,
        1.0
      ],
      "name": "Sketchfab_model"
    },
    {
      "children": [
        2
      ],
      "matrix": [
        1.0,
        0.0,
        0.0,
        0.0,
        0.0,
        0.0,
        1.0,
        0.0,
        0.0,
        -1.0,
        0.0,
        0.0,
        0.0,
        0.0,
        0.0,
        1.0
      ],
      "name": "89156afb2c144a0caf79c241e5714146.fbx"
    },
    {
      "children": [
        3,
        7,
        9,
        11,
        14,
        17
      ],
      "name": "RootNode"
    },
    {
      "children": [
        4,
        5,
        6
      ],
      "matrix": [
        296.9999694824219,
        0.0,
        0.0,
        0.0,
        0.0,
        -6.27244615658551e-05,
        -384.99999999999494,
        0.0,
        0.0,
        368.28005981444824,
        -6.0000437551435013e-05,
        0.0,
        0.0,
        300.0,
        0.0,
        1.0
      ],
      "name": "Elevator"
    },
    {
      "mesh": 0,
      "name": "Elevator_Material_0"
    },
    {
      "mesh": 1,
      "name": "Elevator_Material.001_0"
    },
    {
      "mesh": 2,
      "name": "Elevator_Material.002_0"
    },
    {
      "children": [
        8
      ],
      "matrix": [
        296.9999694824219,
        0.0,
        0.0,
        0.0,
        0.0,
        -6.27244615658551e-05,
        -384.99999999999494,
        0.0,
        0.0,
        368.28005981444824,
        -6.0000437551435013e-05,
        0.0,
        287.14996337890625,
        189.5159912109375,
        125.125,
        1.0
      ],
      "name": "Door"
    },
    {
      "mesh": 3,
      "name": "Door__0"
    },
    {
      "children": [
        10
      ],
      "matrix": [
        -296.99996948241846,
        3.637201171521575e-14,
        4.4845747724031524e-05,
        0.0,
        5.8133382652667115e-05,
        2.906669147373364e-05,
        384.9999999999945,
        0.0,
        -4.15324191999578e-12,
        368.28005981445204,
        -2.7804371020965348e-05,
        0.0,
        287.14996337890625,
        189.5159912109375,
        -125.125,
        1.0
      ],
      "name": "Door.001"
    },
    {
      "mesh": 4,
      "name": "Door.001__0"
    },
    {
      "children": [
        12,
        13
      ],
      "matrix": [
        2.527113676071167,
        0.0,
        0.0,
        0.0,
        0.0,
        -2.377015533905359e-06,
        -14.590017318725392,
        0.0,
        0.0,
        13.758041381835756,
        -2.241469449029642e-06,
        0.0,
        299.0,
        209.99998474121094,
        318.0,
        1.0
      ],
      "name": "B_Up"
    },
    {
      "mesh": 5,
      "name": "B_Up_Material.003_0"
    },
    {
      "mesh": 6,
      "name": "B_Up_Material.001_0"
    },
    {
      "children": [
        15,
        16
      ],
      "matrix": [
        2.527113676071167,
        -1.2459632388136872e-31,
        -1.1222639156077316e-15,
        0.0,
        6.4792692627714516e-15,
        2.840781255292169e-06,
        14.59001731872531,
        0.0,
        1.1896215385159253e-21,
        -13.758041381835678,
        2.6787895595498434e-06,
        0.0,
        299.0,
        170.0,
        318.0,
        1.0
      ],
      "name": "B_Down"
    },
    {
      "mesh": 7,
      "name": "B_Down_Material.003_0"
    },
    {
      "mesh": 8,
      "name": "B_Down_Material.001_0"
    },
    {
      "children": [
        18
      ],
      "matrix": [
        2.018479347229004,
        0.0,
        0.0,
        0.0,
        0.0,
        -8.758615450647907e-06,
        -53.75999832153249,
        0.0,
        0.0,
        20.799999237060273,
        -3.3887500070514794e-06,
        0.0,
        298.23797607421875,
        500.0,
        0.0,
        1.0
      ],
      "name": "Top"
    },
    {
      "mesh": 9,
      "name": "Top__0"
    }
  ],
  "scene": 0,
  "scenes": [
    {
      "name": "Sketchfab_Scene",
      "nodes": [
        0
      ]
    }
  ]
}
