{
  "accessors": [
    {
      "bufferView": 2,
      "componentType": 5126,
      "count": 198,
      "max": [
        0.8274170160293579,
        0.10293000191450119,
        1.630553960800171
      ],
      "min": [
        0.6215569972991943,
        -0.10293000191450119,
        1.5278960466384888
      ],
      "type": "VEC3"
    },
    {
      "bufferView": 2,
      "byteOffset": 2376,
      "componentType": 5126,
      "count": 198,
      "max": [
        0.9814741611480713,
        0.9814741611480713,
        1.0
      ],
      "min": [
        -0.9814741611480713,
        -0.9814741611480713,
        0.19159215688705444
      ],
      "type": "VEC3"
    },
    {
      "bufferView": 1,
      "componentType": 5126,
      "count": 198,
      "max": [
        0.5903289914131165,
        0.5903289914131165
      ],
      "min": [
        0.40967100858688354,
        0.40967100858688354
      ],
      "type": "VEC2"
    },
    {
      "bufferView": 0,
      "componentType": 5125,
      "count": 666,
      "type": "SCALAR"
    },
    {
      "bufferView": 2,
      "byteOffset": 4752,
      "componentType": 5126,
      "count": 4,
      "max": [
        -0.36301401257514954,
        0.3370780050754547,
        1.3017849922180176
      ],
      "min": [
        -0.8672440052032471,
        0.3370780050754547,
        0.7975550293922424
      ],
      "type": "VEC3"
    },
    {
      "bufferView": 2,
      "byteOffset": 4800,
      "componentType": 5126,
      "count": 4,
      "max": [
        -0.0,
        1.0,
        -0.0
      ],
      "min": [
        -0.0,
        1.0,
        -0.0
      ],
      "type": "VEC3"
    },
    {
      "bufferView": 3,
      "componentType": 5126,
      "count": 4,
      "max": [
        -1.0,
        0.0,
        0.0,
        1.0
      ],
      "min": [
        -1.0,
        0.0,
        0.0,
        1.0
      ],
      "type": "VEC4"
    },
    {
      "bufferView": 1,
      "byteOffset": 1584,
      "componentType": 5126,
      "count": 4,
      "max": [
        1.0,
        1.0
      ],
      "min": [
        0.0,
        0.0
      ],
      "type": "VEC2"
    },
    {
      "bufferView": 0,
      "byteOffset": 2664,
      "componentType": 5125,
      "count": 6,
      "type": "SCALAR"
    },
    {
      "bufferView": 2,
      "byteOffset": 4848,
      "componentType": 5126,
      "count": 172,
      "max": [
        0.8199840188026428,
        0.0954969972372055,
        1.5921319723129272
      ],
      "min": [
        0.6289899945259094,
        -0.0954969972372055,
        1.5278960466384888
      ],
      "type": "VEC3"
    },
    {
      "bufferView": 2,
      "byteOffset": 6912,
      "componentType": 5126,
      "count": 172,
      "max": [
        1.0,
        1.0,
        0.9797528386116028
      ],
      "min": [
        -1.0,
        -1.0,
        -0.0
      ],
      "type": "VEC3"
    },
    {
      "bufferView": 1,
      "byteOffset": 1616,
      "componentType": 5126,
      "count": 172,
      "max": [
        0.8830819725990295,
        0.8020700216293335
      ],
      "min": [
        0.08566799759864807,
        0.8020700216293335
      ],
      "type": "VEC2"
    },
    {
      "bufferView": 0,
      "byteOffset": 2688,
      "componentType": 5125,
      "count": 858,
      "type": "SCALAR"
    },
    {
      "bufferView": 2,
      "byteOffset": 8976,
      "componentType": 5126,
      "count": 510,
      "max": [
        1.0,
        0.3413330018520355,
        1.5963460206985474
      ],
      "min": [
        -1.0,
        -0.3413330018520355,
        -1.4043519496917725
      ],
      "type": "VEC3"
    },
    {
      "bufferView": 2,
      "byteOffset": 15096,
      "componentType": 5126,
      "count": 510,
      "max": [
        1.0,
        1.0,
        1.0
      ],
      "min": [
        -1.0,
        -1.0,
        -1.0
      ],
      "type": "VEC3"
    },
    {
      "bufferView": 3,
      "byteOffset": 64,
      "componentType": 5126,
      "count": 510,
      "max": [
        1.0,
        1.0,
        0.9782071709632874,
        1.0
      ],
      "min": [
        -0.9527996778488159,
        -0.9071105718612671,
        -0.9786579012870789,
        -1.0
      ],
      "type": "VEC4"
    },
    {
      "bufferView": 1,
      "byteOffset": 2992,
      "componentType": 5126,
      "count": 510,
      "max": [
        1.7965350151062012,
        1.094871997833252
      ],
      "min": [
        -0.8567590117454529,
        -0.8567590117454529
      ],
      "type": "VEC2"
    },
    {
      "bufferView": 0,
      "byteOffset": 6120,
      "componentType": 5125,
      "count": 1242,
      "type": "SCALAR"
    },
    {
      "bufferView": 2,
      "byteOffset": 21216,
      "componentType": 5126,
      "count": 676,
      "max": [
        0.12228599935770035,
        0.06530299782752991,
        2.1758170127868652
      ],
      "min": [
        -0.43896299600601196,
        -0.43660199642181396,
        1.4546109437942505
      ],
      "type": "VEC3"
    },
    {
      "bufferView": 2,
      "byteOffset": 29328,
      "componentType": 5126,
      "count": 676,
      "max": [
        0.9999998807907104,
        0.9999966621398926,
        0.9997445940971375
      ],
      "min": [
        -0.9999998807907104,
        -0.9999946355819702,
        -0.9997513890266418
      ],
      "type": "VEC3"
    },
    {
      "bufferView": 1,
      "byteOffset": 7072,
      "componentType": 5126,
      "count": 676,
      "max": [
        1.0,
        1.0
      ],
      "min": [
        0.0,
        0.0
      ],
      "type": "VEC2"
    },
    {
      "bufferView": 0,
      "byteOffset": 11088,
      "componentType": 5125,
      "count": 6912,
      "type": "SCALAR"
    },
    {
      "bufferView": 2,
      "byteOffset": 37440,
      "componentType": 5126,
      "count": 664,
      "max": [
        -0.2194499969482422,
        0.4730120003223419,
        0.5606870055198669
      ],
      "min": [
        -0.39643698930740356,
        0.3852970004081726,
        0.38370001316070557
      ],
      "type": "VEC3"
    },
    {
      "bufferView": 2,
      "byteOffset": 45408,
      "componentType": 5126,
      "count": 664,
      "max": [
        1.0,
        0.9946271777153015,
        1.0
      ],
      "min": [
        -1.0,
        -0.9996830821037292,
        -1.0
      ],
      "type": "VEC3"
    },
    {
      "bufferView": 1,
      "byteOffset": 12480,
      "componentType": 5126,
      "count": 664,
      "max": [
        0.5873159766197205,
        0.5873159766197205
      ],
      "min": [
        0.41268399357795715,
        0.41268399357795715
      ],
      "type": "VEC2"
    },
    {
      "bufferView": 0,
      "byteOffset": 38736,
      "componentType": 5125,
      "count": 2586,
      "type": "SCALAR"
    },
    {
      "bufferView": 2,
      "byteOffset": 53376,
      "componentType": 5126,
      "count": 64,
      "max": [
        0.2890320122241974,
        0.37178900837898254,
        0.44717299938201904
      ],
      "min": [
        0.17786599695682526,
        0.37178900837898254,
        -0.04814299941062927
      ],
      "type": "VEC3"
    },
    {
      "bufferView": 2,
      "byteOffset": 54144,
      "componentType": 5126,
      "count": 64,
      "max": [
        -0.0,
        1.0,
        -0.0
      ],
      "min": [
        -0.0,
        1.0,
        -0.0
      ],
      "type": "VEC3"
    },
    {
      "bufferView": 1,
      "byteOffset": 17792,
      "componentType": 5126,
      "count": 64,
      "max": [
        0.5468239784240723,
        0.5468239784240723
      ],
      "min": [
        0.02590700052678585,
        0.02590700052678585
      ],
      "type": "VEC2"
    },
    {
      "bufferView": 0,
      "byteOffset": 49080,
      "componentType": 5125,
      "count": 180,
      "type": "SCALAR"
    },
    {
      "bufferView": 2,
      "byteOffset": 54912,
      "componentType": 5126,
      "count": 64,
      "max": [
        0.6060180068016052,
        0.37188199162483215,
        0.4457769989967346
      ],
      "min": [
        0.4948520064353943,
        0.37188199162483215,
        -0.0493369996547699
      ],
      "type": "VEC3"
    },
    {
      "bufferView": 2,
      "byteOffset": 55680,
      "componentType": 5126,
      "count": 64,
      "max": [
        -0.0,
        1.0,
        -0.0
      ],
      "min": [
        -0.0,
        1.0,
        -0.0
      ],
      "type": "VEC3"
    },
    {
      "bufferView": 1,
      "byteOffset": 18304,
      "componentType": 5126,
      "count": 64,
      "max": [
        0.5468239784240723,
        0.5468239784240723
      ],
      "min": [
        0.45317599177360535,
        0.45317599177360535
      ],
      "type": "VEC2"
    },
    {
      "bufferView": 0,
      "byteOffset": 49800,
      "componentType": 5125,
      "count": 180,
      "type": "SCALAR"
    },
    {
      "bufferView": 2,
      "byteOffset": 56448,
      "componentType": 5126,
      "count": 735,
      "max": [
        0.8577979803085327,
        0.34141600131988525,
        1.5278960466384888
      ],
      "min": [
        -0.47088301181793213,
        -0.13413099944591522,
        0.3093990087509155
      ],
      "type": "VEC3"
    },
    {
      "bufferView": 2,
      "byteOffset": 65268,
      "componentType": 5126,
      "count": 735,
      "max": [
        1.0,
        1.0,
        1.0
      ],
      "min": [
        -1.0,
        -1.0,
        -1.0
      ],
      "type": "VEC3"
    },
    {
      "bufferView": 1,
      "byteOffset": 18816,
      "componentType": 5126,
      "count": 735,
      "max": [
        1.0,
        1.0
      ],
      "min": [
        0.0,
        0.0
      ],
      "type": "VEC2"
    },
    {
      "bufferView": 0,
      "byteOffset": 50520,
      "componentType": 5125,
      "count": 2748,
      "type": "SCALAR"
    },
    {
      "bufferView": 2,
      "byteOffset": 74088,
      "componentType": 5126,
      "count": 5375,
      "max": [
        0.6551219820976257,
        0.3852970004081726,
        0.6079980134963989
      ],
      "min": [
        -0.8903170228004456,
        0.31783199310302734,
        -0.22898100316524506
      ],
      "type": "VEC3"
    },
    {
      "bufferView": 2,
      "byteOffset": 138588,
      "componentType": 5126,
      "count": 5375,
      "max": [
        1.0,
        1.0,
        1.0
      ],
      "min": [
        -1.0,
        -1.0,
        -1.0
      ],
      "type": "VEC3"
    },
    {
      "bufferView": 1,
      "byteOffset": 24696,
      "componentType": 5126,
      "count": 5375,
      "max": [
        1.0,
        1.0
      ],
      "min": [
        0.0,
        0.0
      ],
      "type": "VEC2"
    },
    {
      "bufferView": 0,
      "byteOffset": 61512,
      "componentType": 5125,
      "count": 17172,
      "type": "SCALAR"
    },
    {
      "bufferView": 2,
      "byteOffset": 203088,
      "componentType": 5126,
      "count": 480,
      "max": [
        0.6265079975128174,
        0.3414979875087738,
        0.5716890096664429
      ],
      "min": [
        0.15737700462341309,
        0.33575400710105896,
        0.0958620011806488
      ],
      "type": "VEC3"
    },
    {
      "bufferView": 2,
      "byteOffset": 208848,
      "componentType": 5126,
      "count": 480,
      "max": [
        1.0,
        1.0,
        1.0
      ],
      "min": [
        -1.0,
        -1.0,
        -1.0
      ],
      "type": "VEC3"
    },
    {
      "bufferView": 1,
      "byteOffset": 67696,
      "componentType": 5126,
      "count": 480,
      "max": [
        1.0,
        1.0
      ],
      "min": [
        0.0,
        0.0
      ],
      "type": "VEC2"
    },
    {
      "bufferView": 0,
      "byteOffset": 130200,
      "componentType": 5125,
      "count": 912,
      "type": "SCALAR"
    },
    {
      "bufferView": 2,
      "byteOffset": 214608,
      "componentType": 5126,
      "count": 8521,
      "max": [
        0.6169639825820923,
        0.3421429991722107,
        0.5527830123901367
      ],
      "min": [
        0.1628199964761734,
        0.3410530090332031,
        0.11291900277137756
      ],
      "type": "VEC3"
    },
    {
      "bufferView": 2,
      "byteOffset": 316860,
      "componentType": 5126,
      "count": 8521,
      "max": [
        1.0,
        1.0,
        1.0
      ],
      "min": [
        -1.0,
        -1.0,
        -1.0
      ],
      "type": "VEC3"
    },
    {
      "bufferView": 1,
      "byteOffset": 71536,
      "componentType": 5126,
      "count": 8521,
      "max": [
        1.0,
        1.0
      ],
      "min": [
        0.0,
        0.0
      ],
      "type": "VEC2"
    },
    {
      "bufferView": 0,
      "byteOffset": 133848,
      "componentType": 5125,
      "count": 38772,
      "type": "SCALAR"
    },
    {
      "bufferView": 2,
      "byteOffset": 419112,
      "componentType": 5126,
      "count": 7931,
      "max": [
        0.6169639825820923,
        0.3420419991016388,
        0.16883599758148193
      ],
      "min": [
        0.1624079942703247,
        0.3410530090332031,
        0.11250600218772888
      ],
      "type": "VEC3"
    },
    {
      "bufferView": 2,
      "byteOffset": 514284,
      "componentType": 5126,
      "count": 7931,
      "max": [
        1.0,
        0.9985652565956116,
        1.0
      ],
      "min": [
        -1.0,
        -0.9985652565956116,
        -1.0
      ],
      "type": "VEC3"
    },
    {
      "bufferView": 1,
      "byteOffset": 139704,
      "componentType": 5126,
      "count": 7931,
      "max": [
        1.0,
        1.0
      ],
      "min": [
        0.0,
        0.0
      ],
      "type": "VEC2"
    },
    {
      "bufferView": 0,
      "byteOffset": 288936,
      "componentType": 5125,
      "count": 42000,
      "type": "SCALAR"
    },
    {
      "bufferView": 2,
      "byteOffset": 609456,
      "componentType": 5126,
      "count": 8608,
      "max": [
        0.8491740226745605,
        0.3566400110721588,
        1.6090500354766846
      ],
      "min": [
        -0.8348580002784729,
        -0.17574100196361542,
        0.17523500323295593
      ],
      "type": "VEC3"
    },
    {
      "bufferView": 2,
      "byteOffset": 712752,
      "componentType": 5126,
      "count": 8608,
      "max": [
        1.0,
        1.0,
        1.0
      ],
      "min": [
        -1.0,
        -1.0,
        -1.0
      ],
      "type": "VEC3"
    },
    {
      "bufferView": 1,
      "byteOffset": 203152,
      "componentType": 5126,
      "count": 8608,
      "max": [
        1.0,
        1.0
      ],
      "min": [
        0.0,
        0.009999999776482582
      ],
      "type": "VEC2"
    },
    {
      "bufferView": 0,
      "byteOffset": 456936,
      "componentType": 5125,
      "count": 33810,
      "type": "SCALAR"
    }
  ],
  "asset": {
    "extras": {
      "author": "starkerg (https://sketchfab.com/starkerg)",
      "license": "CC-BY-4.0 (http://creativecommons.org/licenses/by/4.0/)",
      "source": "https://sketchfab.com/3d-models/electrical-box-6b385a0693b34d5e997773ef675bd637",
      "title": "Electrical box"
    },
    "generator": "Sketchfab-16.16.0",
    "version": "2.0"
  },
  "bufferViews": [
    {
      "buffer": 0,
      "byteLength": 592176,
      "name": "floatBufferViews",
      "target": 34963
    },
    {
      "buffer": 0,
      "byteLength": 272016,
      "byteOffset": 592176,
      "byteStride": 8,
      "name": "floatBufferViews",
      "target": 34962
    },
    {
      "buffer": 0,
      "byteLength": 816048,
      "byteOffset": 864192,
      "byteStride": 12,
      "name": "floatBufferViews",
      "target": 34962
    },
    {
      "buffer": 0,
      "byteLength": 8224,
      "byteOffset": 1680240,
      "byteStride": 16,
      "name": "floatBufferViews",
      "target": 34962
    }
  ],
  "buffers": [
    {
      "byteLength": 1688464,
      "uri": "scene.bin"
    }
  ],
  "extensionsUsed": [
    "KHR_materials_emissive_strength",
    "KHR_materials_specular"
  ],
  "images": [
    {
      "uri": "textures/cartello_baseColor.png"
    },
    {
      "uri": "textures/cartello_metallicRoughness.png"
    },
    {
      "uri": "textures/cartello_normal.png"
    },
    {
      "uri": "textures/copertura_baseColor.jpeg"
    },
    {
      "uri": "textures/copertura_metallicRoughness.png"
    },
    {
      "uri": "textures/copertura_normal.png"
    }
  ],
  "materials": [
    {
      "doubleSided": true,
      "name": "Automotive_led_lights",
      "pbrMetallicRoughness": {
        "metallicFactor": 0.0,
        "roughnessFactor": 0.6
      }
    },
    {
      "doubleSided": true,
      "emissiveFactor": [
        1.0,
        0.0,
        0.0
      ],
      "extensions": {
        "KHR_materials_emissive_strength": {
          "emissiveStrength": 10.0
        }
      },
      "name": "Glass",
      "pbrMetallicRoughness": {
        "baseColorFactor": [
          0.9899636880863927,
          0.0,
          0.0,
          1.0
        ],
        "metallicFactor": 0.0,
        "roughnessFactor": 0.20571491265497188
      }
    },
    {
      "alphaMode": "BLEND",
      "doubleSided": true,
      "name": "cartello",
      "normalTexture": {
        "index": 2
      },
      "pbrMetallicRoughness": {
        "baseColorTexture": {
          "index": 0
        },
        "metallicRoughnessTexture": {
          "index": 1
        }
      }
    },
    {
      "doubleSided": true,
      "extensions": {
        "KHR_materials_specular": {
          "specularColorFactor": [
            1.0,
            1.0,
            1.0
          ],
          "specularFactor": 0.4739062061903426
        }
      },
      "name": "copertura",
      "normalTexture": {
        "index": 5
      },
      "pbrMetallicRoughness": {
        "baseColorTexture": {
          "index": 3
        },
        "metallicRoughnessTexture": {
          "index": 4
        }
      }
    },
    {
      "doubleSided": true,
      "emissiveFactor": [
        0.15426279685608668,
        0.0,
        0.0
      ],
      "extensions": {
        "KHR_materials_emissive_strength": {
          "emissiveStrength": 10.0
        }
      },
      "name": "led_rosso",
      "pbrMetallicRoughness": {
        "baseColorFactor": [
          1.0,
          0.0,
          0.0,
          1.0
        ],
        "metallicFactor": 0.0,
        "roughnessFactor": 0.6
      }
    },
    {
      "doubleSided": true,
      "emissiveFactor": [
        0.007030394238693057,
        0.08278013630699911,
        0.0
      ],
      "extensions": {
        "KHR_materials_emissive_strength": {
          "emissiveStrength": 10.0
        }
      },
      "name": "led_verde",
      "pbrMetallicRoughness": {
        "baseColorFactor": [
          0.04999488099145079,
          1.0,
          0.0,
          1.0
        ],
        "metallicFactor": 0.0,
        "roughnessFactor": 0.6
      }
    },
    {
      "doubleSided": true,
      "name": "plastica_cavi",
      "pbrMetallicRoughness": {
        "baseColorFactor": [
          0.36294430693184254,
          0.36294430693184254,
          0.36294430693184254,
          1.0
        ],
        "metallicFactor": 0.0,
        "roughnessFactor": 0.4434299228340505
      }
    },
    {
      "doubleSided": true,
      "extensions": {
        "KHR_materials_specular": {
          "specularColorFactor": [
            1.0,
            1.0,
            1.0
          ],
          "specularFactor": 0.14476234594238763
        }
      },
      "name": "plastica_gialla",
      "pbrMetallicRoughness": {
        "baseColorFactor": [
          0.6019065962867696,
          0.357824529026995,
          0.01976041698196533,
          1.0
        ],
        "metallicFactor": 0.1569528592849045,
        "roughnessFactor": 0.7969548097670393
      }
    },
    {
      "doubleSided": true,
      "name": "plastica_nera",
      "pbrMetallicRoughness": {
        "baseColorFactor": [
          0.0,
          0.0,
          0.0,
          1.0
        ],
        "metallicFactor": 0.0,
        "roughnessFactor": 0.6
      }
    },
    {
      "doubleSided": true,
      "name": "plastica_rossa",
      "pbrMetallicRoughness": {
        "baseColorFactor": [
          0.5287635162316685,
          0.008877504790683303,
          0.008877504790683303,
          1.0
        ],
        "metallicFactor": 0.0,
        "roughnessFactor": 0.6323828796430617
      }
    },
    {
      "doubleSided": true,
      "name": "plastica_testo",
      "pbrMetallicRoughness": {
        "metallicFactor": 0.0,
        "roughnessFactor": 0.6
      }
    },
    {
      "doubleSided": true,
      "name": "testo",
      "pbrMetallicRoughness": {
        "baseColorFactor": [
          0.0,
          0.0,
          0.0,
          1.0
        ],
        "metallicFactor": 0.0,
        "roughnessFactor": 0.3154295327376236
      }
    },
    {
      "doubleSided": true,
      "name": "viti",
      "pbrMetallicRoughness": {
        "baseColorFactor": [
          0.37638209945020784,
          0.37638209945020784,
          0.37638209945020784,
          1.0
        ],
        "roughnessFactor": 0.24228645268252244
      }
    }
  ],
  "meshes": [
    {
      "name": "Object_0",
      "primitives": [
        {
          "attributes": {
            "NORMAL": 1,
            "POSITION": 0,
            "TEXCOORD_0": 2
          },
          "indices": 3,
          "material": 1,
          "mode": 4
        }
      ]
    },
    {
      "name": "Object_1",
      "primitives": [
        {
          "attributes": {
            "NORMAL": 5,
            "POSITION": 4,
            "TANGENT": 6,
            "TEXCOORD_0": 7
          },
          "indices": 8,
          "material": 2,
          "mode": 4
        }
      ]
    },
    {
      "name": "Object_2",
      "primitives": [
        {
          "attributes": {
            "NORMAL": 10,
            "POSITION": 9,
            "TEXCOORD_0": 11
          },
          "indices": 12,
          "material": 0,
          "mode": 4
        }
      ]
    },
    {
      "name": "Object_3",
      "primitives": [
        {
          "attributes": {
            "NORMAL": 14,
            "POSITION": 13,
            "TANGENT": 15,
            "TEXCOORD_0": 16
          },
          "indices": 17,
          "material": 3,
          "mode": 4
        }
      ]
    },
    {
      "name": "Object_4",
      "primitives": [
        {
          "attributes": {
            "NORMAL": 19,
            "POSITION": 18,
            "TEXCOORD_0": 20
          },
          "indices": 21,
          "material": 6,
          "mode": 4
        }
      ]
    },
    {
      "name": "Object_5",
      "primitives": [
        {
          "attributes": {
            "NORMAL": 23,
            "POSITION": 22,
            "TEXCOORD_0": 24
          },
          "indices": 25,
          "material": 9,
          "mode": 4
        }
      ]
    },
    {
      "name": "Object_6",
      "primitives": [
        {
          "attributes": {
            "NORMAL": 27,
            "POSITION": 26,
            "TEXCOORD_0": 28
          },
          "indices": 29,
          "material": 4,
          "mode": 4
        }
      ]
    },
    {
      "name": "Object_7",
      "primitives": [
        {
          "attributes": {
            "NORMAL": 31,
            "POSITION": 30,
            "TEXCOORD_0": 32
          },
          "indices": 33,
          "material": 5,
          "mode": 4
        }
      ]
    },
    {
      "name": "Object_8",
      "primitives": [
        {
          "attributes": {
            "NORMAL": 35,
            "POSITION": 34,
            "TEXCOORD_0": 36
          },
          "indices": 37,
          "material": 7,
          "mode": 4
        }
      ]
    },
    {
      "name": "Object_9",
      "primitives": [
        {
          "attributes": {
            "NORMAL": 39,
            "POSITION": 38,
            "TEXCOORD_0": 40
          },
          "indices": 41,
          "material": 8,
          "mode": 4
        }
      ]
    },
    {
      "name": "Object_10",
      "primitives": [
        {
          "attributes": {
            "NORMAL": 43,
            "POSITION": 42,
            "TEXCOORD_0": 44
          },
          "indices": 45,
          "material": 10,
          "mode": 4
        }
      ]
    },
    {
      "name": "Object_11",
      "primitives": [
        {
          "attributes": {
            "NORMAL": 47,
            "POSITION": 46,
            "TEXCOORD_0": 48
          },
          "indices": 49,
          "material": 11,
          "mode": 4
        }
      ]
    },
    {
      "name": "Object_12",
      "primitives": [
        {
          "attributes": {
            "NORMAL": 51,
            "POSITION": 50,
            "TEXCOORD_0": 52
          },
          "indices": 53,
          "material": 11,
          "mode": 4
        }
      ]
    },
    {
      "name": "Object_13",
      "primitives": [
        {
          "attributes": {
            "NORMAL": 55,
            "POSITION": 54,
            "TEXCOORD_0": 56
          },
          "indices": 57,
          "material": 12,
          "mode": 4
        }
      ]
    }
  ],
  "nodes": [
    {
      "children": [
        1
      ],
      "matrix": [
        1.0,
        0.0,
        0.0,
        0.0,
        0.0,
        2.220446049250313e-16,
        -1.0,
        0.0,
        0.0,
        1.0,
        2.220446049250313e-16,
        0.0,
        0.0,
        0.0,
        0.0,
        1.0
      ],
      "name": "Sketchfab_model"
    },
    {
      "children": [
        2,
        3,
        4,
        5,
        6,
        7,
        8,
        9,
        10,
        11,
        12,
        13,
        14,
        15
      ],
      "name": "untitled.obj.cleaner.materialmerger.gles"
    },
    {
      "mesh": 0,
      "name": "Object_2"
    },
    {
      "mesh": 1,
      "name": "Object_3"
    },
    {
      "mesh": 2,
      "name": "Object_4"
    },
    {
      "mesh": 3,
      "name": "Object_5"
    },
    {
      "mesh": 4,
      "name": "Object_6"
    },
    {
      "mesh": 5,
      "name": "Object_7"
    },
    {
      "mesh": 6,
      "name": "Object_8"
    },
    {
      "mesh": 7,
      "name": "Object_9"
    },
    {
      "mesh": 8,
      "name": "Object_10"
    },
    {
      "mesh": 9,
      "name": "Object_11"
    },
    {
      "mesh": 10,
      "name": "Object_12"
    },
    {
      "mesh": 11,
      "name": "Object_13"
    },
    {
      "mesh": 12,
      "name": "Object_14"
    },
    {
      "mesh": 13,
      "name": "Object_15"
    }
  ],
  "samplers": [
    {
      "magFilter": 9729,
      "minFilter": 9987,
      "wrapS": 10497,
      "wrapT": 10497
    }
  ],
  "scene": 0,
  "scenes": [
    {
      "name": "Sketchfab_Scene",
      "nodes": [
        0
      ]
    }
  ],
  "textures": [
    {
      "sampler": 0,
      "source": 0
    },
    {
      "sampler": 0,
      "source": 1
    },
    {
      "sampler": 0,
      "source": 2
    },
    {
      "sampler": 0,
      "source": 3
    },
    {
      "sampler": 0,
      "source": 4
    },
    {
      "sampler": 0,
      "source": 5
    }
  ]
}
