{
  "accessors": [
    {
      "bufferView": 2,
      "componentType": 5126,
      "count": 96,
      "max": [
        0.04939132183790207,
        0.13999998569488525,
        0.19999980926513672
      ],
      "min": [
        -0.10060866177082062,
        -0.13999998569488525,
        -0.20000004768371582
      ],
      "type": "VEC3"
    },
    {
      "bufferView": 2,
      "byteOffset": 1152,
      "componentType": 5126,
      "count": 96,
      "max": [
        0.9998676180839539,
        0.9999626278877258,
        0.999902606010437
      ],
      "min": [
        -0.9997719526290894,
        -0.999962568283081,
        -0.999902606010437
      ],
      "type": "VEC3"
    },
    {
      "bufferView": 3,
      "componentType": 5126,
      "count": 96,
      "max": [
        1.0,
        0.9997664093971252,
        0.9999096989631653,
        1.0
      ],
      "min": [
        -0.9985894560813904,
        -0.9998748898506165,
        -0.9999097585678101,
        1.0
      ],
      "type": "VEC4"
    },
    {
      "bufferView": 1,
      "componentType": 5126,
      "count": 96,
      "max": [
        0.9824962615966797,
        0.92971271276474
      ],
      "min": [
        0.22324301302433014,
        0.0025601789820939302
      ],
      "type": "VEC2"
    },
    {
      "bufferView": 0,
      "componentType": 5125,
      "count": 330,
      "type": "SCALAR"
    },
    {
      "bufferView": 2,
      "byteOffset": 2304,
      "componentType": 5126,
      "count": 72,
      "max": [
        0.04038761928677559,
        0.13999997079372406,
        0.25
      ],
      "min": [
        -0.05855458602309227,
        -0.14000004529953003,
        -0.24999988079071045
      ],
      "type": "VEC3"
    },
    {
      "bufferView": 2,
      "byteOffset": 3168,
      "componentType": 5126,
      "count": 72,
      "max": [
        0.999799370765686,
        0.9999593496322632,
        0.9998442530632019
      ],
      "min": [
        -0.9997994303703308,
        -0.999959409236908,
        -0.9998440742492676
      ],
      "type": "VEC3"
    },
    {
      "bufferView": 3,
      "byteOffset": 1536,
      "componentType": 5126,
      "count": 72,
      "max": [
        0.998724639415741,
        0.9998442530632019,
        0.999959409236908,
        1.0
      ],
      "min": [
        -0.9986732602119446,
        -0.9998728632926941,
        -0.9999594688415527,
        1.0
      ],
      "type": "VEC4"
    },
    {
      "bufferView": 1,
      "byteOffset": 768,
      "componentType": 5126,
      "count": 72,
      "max": [
        0.9665313959121704,
        0.9921600818634033
      ],
      "min": [
        0.002564979949966073,
        0.0025613843463361263
      ],
      "type": "VEC2"
    },
    {
      "bufferView": 0,
      "byteOffset": 1320,
      "componentType": 5125,
      "count": 222,
      "type": "SCALAR"
    },
    {
      "bufferView": 2,
      "byteOffset": 4032,
      "componentType": 5126,
      "count": 62,
      "max": [
        0.03527242690324783,
        0.3477455973625183,
        0.30168402194976807
      ],
      "min": [
        -0.07451324909925461,
        -0.3477459251880646,
        -0.3016843795776367
      ],
      "type": "VEC3"
    },
    {
      "bufferView": 2,
      "byteOffset": 4776,
      "componentType": 5126,
      "count": 62,
      "max": [
        0.9999431371688843,
        0.9999733567237854,
        0.999981164932251
      ],
      "min": [
        -0.9999431371688843,
        -0.9999732971191406,
        -0.9999811053276062
      ],
      "type": "VEC3"
    },
    {
      "bufferView": 3,
      "byteOffset": 2688,
      "componentType": 5126,
      "count": 62,
      "max": [
        0.9986892342567444,
        0.9999765157699585,
        0.9999648928642273,
        1.0
      ],
      "min": [
        -0.9986872673034668,
        -0.9998889565467834,
        -0.9999648928642273,
        1.0
      ],
      "type": "VEC4"
    },
    {
      "bufferView": 1,
      "byteOffset": 1344,
      "componentType": 5126,
      "count": 62,
      "max": [
        0.9440915584564209,
        0.8469604849815369
      ],
      "min": [
        0.2232370227575302,
        0.0025571289006620646
      ],
      "type": "VEC2"
    },
    {
      "bufferView": 0,
      "byteOffset": 2208,
      "componentType": 5125,
      "count": 222,
      "type": "SCALAR"
    },
    {
      "bufferView": 2,
      "byteOffset": 5520,
      "componentType": 5126,
      "count": 62,
      "max": [
        0.02927461639046669,
        0.29646235704421997,
        0.34861910343170166
      ],
      "min": [
        -0.05851906165480614,
        -0.2964627146720886,
        -0.34861934185028076
      ],
      "type": "VEC3"
    },
    {
      "bufferView": 2,
      "byteOffset": 6264,
      "componentType": 5126,
      "count": 62,
      "max": [
        0.9999415874481201,
        0.999980628490448,
        0.999972939491272
      ],
      "min": [
        -0.9999416470527649,
        -0.9999806880950928,
        -0.9999728798866272
      ],
      "type": "VEC3"
    },
    {
      "bufferView": 3,
      "byteOffset": 3680,
      "componentType": 5126,
      "count": 62,
      "max": [
        0.998886227607727,
        0.5449450016021729,
        0.11253231763839722,
        1.0
      ],
      "min": [
        -0.99891197681427,
        -0.9999644160270691,
        -0.9992630481719971,
        1.0
      ],
      "type": "VEC4"
    },
    {
      "bufferView": 1,
      "byteOffset": 1840,
      "componentType": 5126,
      "count": 62,
      "max": [
        0.943679928779602,
        0.7485606074333191
      ],
      "min": [
        0.0025561314541846514,
        0.00255584716796875
      ],
      "type": "VEC2"
    },
    {
      "bufferView": 0,
      "byteOffset": 3096,
      "componentType": 5125,
      "count": 222,
      "type": "SCALAR"
    },
    {
      "bufferView": 2,
      "byteOffset": 7008,
      "componentType": 5126,
      "count": 42,
      "max": [
        0.049999989569187164,
        0.13999998569488525,
        0.1999998688697815
      ],
      "min": [
        -0.04999999701976776,
        -0.13999998569488525,
        -0.20000004768371582
      ],
      "type": "VEC3"
    },
    {
      "bufferView": 2,
      "byteOffset": 7512,
      "componentType": 5126,
      "count": 42,
      "max": [
        0.9997719526290894,
        0.9986448287963867,
        0.9985760450363159
      ],
      "min": [
        -0.9997718930244446,
        -0.9986448287963867,
        -0.9985756278038025
      ],
      "type": "VEC3"
    },
    {
      "bufferView": 3,
      "byteOffset": 4672,
      "componentType": 5126,
      "count": 42,
      "max": [
        0.9985896348953247,
        0.9997665286064148,
        0.9997106790542603,
        1.0
      ],
      "min": [
        -0.9985893368721008,
        -0.99985271692276,
        -0.9999097585678101,
        1.0
      ],
      "type": "VEC4"
    },
    {
      "bufferView": 1,
      "byteOffset": 2336,
      "componentType": 5126,
      "count": 42,
      "max": [
        0.9318332076072693,
        0.989926815032959
      ],
      "min": [
        0.223245769739151,
        0.8525151014328003
      ],
      "type": "VEC2"
    },
    {
      "bufferView": 0,
      "byteOffset": 3984,
      "componentType": 5125,
      "count": 132,
      "type": "SCALAR"
    },
    {
      "bufferView": 2,
      "byteOffset": 8016,
      "componentType": 5126,
      "count": 185,
      "max": [
        0.021539553999900818,
        0.032489240169525146,
        0.014738202095031738
      ],
      "min": [
        -0.016304925084114075,
        -0.06498974561691284,
        -0.014738202095031738
      ],
      "type": "VEC3"
    },
    {
      "bufferView": 2,
      "byteOffset": 10236,
      "componentType": 5126,
      "count": 185,
      "max": [
        0.9999394416809082,
        1.0,
        1.0
      ],
      "min": [
        -0.9999687671661377,
        -1.0,
        -1.0
      ],
      "type": "VEC3"
    },
    {
      "bufferView": 3,
      "byteOffset": 5344,
      "componentType": 5126,
      "count": 185,
      "max": [
        1.0,
        0.9904637336730957,
        0.9929346442222595,
        1.0
      ],
      "min": [
        -0.5410348773002625,
        -0.9999687671661377,
        -0.8973063230514526,
        1.0
      ],
      "type": "VEC4"
    },
    {
      "bufferView": 1,
      "byteOffset": 2672,
      "componentType": 5126,
      "count": 185,
      "max": [
        0.626255452632904,
        0.6676746606826782
      ],
      "min": [
        0.11884839087724686,
        0.21249686181545258
      ],
      "type": "VEC2"
    },
    {
      "bufferView": 0,
      "byteOffset": 4512,
      "componentType": 5125,
      "count": 906,
      "type": "SCALAR"
    },
    {
      "bufferView": 2,
      "byteOffset": 12456,
      "componentType": 5126,
      "count": 72,
      "max": [
        0.046938903629779816,
        0.10420968383550644,
        0.10414141416549683
      ],
      "min": [
        -0.07831188291311264,
        -0.10420965403318405,
        -0.10414141416549683
      ],
      "type": "VEC3"
    },
    {
      "bufferView": 2,
      "byteOffset": 13320,
      "componentType": 5126,
      "count": 72,
      "max": [
        0.9978614449501038,
        0.99992835521698,
        0.9999306797981262
      ],
      "min": [
        -0.997656524181366,
        -0.99992835521698,
        -0.9999306797981262
      ],
      "type": "VEC3"
    },
    {
      "bufferView": 3,
      "byteOffset": 8304,
      "componentType": 5126,
      "count": 72,
      "max": [
        0.9953576922416687,
        0.21908172965049744,
        0.999355673789978,
        1.0
      ],
      "min": [
        -1.0,
        -0.20031313598155975,
        -0.9990174770355225,
        1.0
      ],
      "type": "VEC4"
    },
    {
      "bufferView": 1,
      "byteOffset": 4152,
      "componentType": 5126,
      "count": 72,
      "max": [
        0.9823481440544128,
        0.9852422475814819
      ],
      "min": [
        0.5401379466056824,
        0.7705956101417542
      ],
      "type": "VEC2"
    },
    {
      "bufferView": 0,
      "byteOffset": 8136,
      "componentType": 5125,
      "count": 222,
      "type": "SCALAR"
    },
    {
      "bufferView": 2,
      "byteOffset": 14184,
      "componentType": 5126,
      "count": 26,
      "max": [
        0.02136944979429245,
        0.021369460970163345,
        0.3983880281448364
      ],
      "min": [
        -0.021369462832808495,
        -0.02136945351958275,
        -0.39838820695877075
      ],
      "type": "VEC3"
    },
    {
      "bufferView": 2,
      "byteOffset": 14496,
      "componentType": 5126,
      "count": 26,
      "max": [
        1.0,
        1.0,
        0.0
      ],
      "min": [
        -1.0,
        -1.0,
        0.0
      ],
      "type": "VEC3"
    },
    {
      "bufferView": 3,
      "byteOffset": 9456,
      "componentType": 5126,
      "count": 26,
      "max": [
        0.9999892115592957,
        0.99998939037323,
        0.004666105844080448,
        1.0
      ],
      "min": [
        -0.9999892711639404,
        -0.9999893307685852,
        0.004626492969691753,
        1.0
      ],
      "type": "VEC4"
    },
    {
      "bufferView": 1,
      "byteOffset": 4728,
      "componentType": 5126,
      "count": 26,
      "max": [
        0.8725836873054504,
        0.7114214897155762
      ],
      "min": [
        0.8238886594772339,
        0.4787537753582001
      ],
      "type": "VEC2"
    },
    {
      "bufferView": 0,
      "byteOffset": 9024,
      "componentType": 5125,
      "count": 72,
      "type": "SCALAR"
    },
    {
      "bufferView": 2,
      "byteOffset": 14808,
      "componentType": 5126,
      "count": 91,
      "max": [
        0.021369487047195435,
        0.0670027881860733,
        0.13878601789474487
      ],
      "min": [
        -0.02136942744255066,
        -0.10361471027135849,
        -0.06203073263168335
      ],
      "type": "VEC3"
    },
    {
      "bufferView": 2,
      "byteOffset": 15900,
      "componentType": 5126,
      "count": 91,
      "max": [
        1.0,
        1.0,
        1.0
      ],
      "min": [
        -1.0,
        -1.0,
        -1.0
      ],
      "type": "VEC3"
    },
    {
      "bufferView": 3,
      "byteOffset": 9872,
      "componentType": 5126,
      "count": 91,
      "max": [
        1.0,
        1.0,
        1.0,
        1.0
      ],
      "min": [
        -1.0,
        -1.0,
        -1.0,
        1.0
      ],
      "type": "VEC4"
    },
    {
      "bufferView": 1,
      "byteOffset": 4936,
      "componentType": 5126,
      "count": 91,
      "max": [
        0.874139666557312,
        0.4418698251247406
      ],
      "min": [
        0.836467444896698,
        0.35585033893585205
      ],
      "type": "VEC2"
    },
    {
      "bufferView": 0,
      "byteOffset": 9312,
      "componentType": 5125,
      "count": 432,
      "type": "SCALAR"
    },
    {
      "bufferView": 2,
      "byteOffset": 16992,
      "componentType": 5126,
      "count": 91,
      "max": [
        0.015500668436288834,
        0.04860144853591919,
        0.1006699800491333
      ],
      "min": [
        -0.015500646084547043,
        -0.07515853643417358,
        -0.04499542713165283
      ],
      "type": "VEC3"
    },
    {
      "bufferView": 2,
      "byteOffset": 18084,
      "componentType": 5126,
      "count": 91,
      "max": [
        1.0,
        1.0,
        1.0
      ],
      "min": [
        -1.0,
        -1.0,
        -1.0
      ],
      "type": "VEC3"
    },
    {
      "bufferView": 3,
      "byteOffset": 11328,
      "componentType": 5126,
      "count": 91,
      "max": [
        0.011752139776945114,
        1.0,
        1.0,
        1.0
      ],
      "min": [
        -0.01175202988088131,
        -7.124877470232605e-07,
        -0.009692344814538956,
        1.0
      ],
      "type": "VEC4"
    },
    {
      "bufferView": 1,
      "byteOffset": 5664,
      "componentType": 5126,
      "count": 91,
      "max": [
        0.6597648859024048,
        0.9673608541488647
      ],
      "min": [
        0.5960426926612854,
        0.9395614862442017
      ],
      "type": "VEC2"
    },
    {
      "bufferView": 0,
      "byteOffset": 11040,
      "componentType": 5125,
      "count": 432,
      "type": "SCALAR"
    },
    {
      "bufferView": 2,
      "byteOffset": 19176,
      "componentType": 5126,
      "count": 26,
      "max": [
        0.015500657260417938,
        0.08538052439689636,
        0.0151938796043396
      ],
      "min": [
        -0.015500657260417938,
        -0.08538058400154114,
        -0.0151938796043396
      ],
      "type": "VEC3"
    },
    {
      "bufferView": 2,
      "byteOffset": 19488,
      "componentType": 5126,
      "count": 26,
      "max": [
        1.0,
        0.0,
        1.0
      ],
      "min": [
        -1.0,
        0.0,
        -1.0
      ],
      "type": "VEC3"
    },
    {
      "bufferView": 3,
      "byteOffset": 12784,
      "componentType": 5126,
      "count": 26,
      "max": [
        1.0,
        1.2293478903302457e-05,
        1.0,
        1.0
      ],
      "min": [
        -1.0,
        -1.148248884419445e-05,
        -1.0,
        1.0
      ],
      "type": "VEC4"
    },
    {
      "bufferView": 1,
      "byteOffset": 6392,
      "componentType": 5126,
      "count": 26,
      "max": [
        0.9436681866645813,
        0.8050622344017029
      ],
      "min": [
        0.9158501625061035,
        0.7552351951599121
      ],
      "type": "VEC2"
    },
    {
      "bufferView": 0,
      "byteOffset": 12768,
      "componentType": 5125,
      "count": 72,
      "type": "SCALAR"
    },
    {
      "bufferView": 2,
      "byteOffset": 19800,
      "componentType": 5126,
      "count": 26,
      "max": [
        0.015500657260417938,
        0.015193939208984375,
        0.05208444595336914
      ],
      "min": [
        -0.015500657260417938,
        -0.015193849802017212,
        -0.05208420753479004
      ],
      "type": "VEC3"
    },
    {
      "bufferView": 2,
      "byteOffset": 20112,
      "componentType": 5126,
      "count": 26,
      "max": [
        1.0,
        1.0,
        0.0
      ],
      "min": [
        -1.0,
        -1.0,
        0.0
      ],
      "type": "VEC3"
    },
    {
      "bufferView": 3,
      "byteOffset": 13200,
      "componentType": 5126,
      "count": 26,
      "max": [
        5.137709990776784e-07,
        3.4967215469805524e-06,
        -1.0,
        1.0
      ],
      "min": [
        -1.2534972881894646e-07,
        -2.869774107239209e-07,
        -1.0,
        1.0
      ],
      "type": "VEC4"
    },
    {
      "bufferView": 1,
      "byteOffset": 6600,
      "componentType": 5126,
      "count": 26,
      "max": [
        0.8668609261512756,
        0.4758366048336029
      ],
      "min": [
        0.8364652395248413,
        0.4480185806751251
      ],
      "type": "VEC2"
    },
    {
      "bufferView": 0,
      "byteOffset": 13056,
      "componentType": 5125,
      "count": 72,
      "type": "SCALAR"
    },
    {
      "bufferView": 2,
      "byteOffset": 20424,
      "componentType": 5126,
      "count": 42,
      "max": [
        0.04999999701976776,
        0.1400001049041748,
        0.2823484539985657
      ],
      "min": [
        -0.04999999701976776,
        -0.1399998664855957,
        -0.2823483347892761
      ],
      "type": "VEC3"
    },
    {
      "bufferView": 2,
      "byteOffset": 20928,
      "componentType": 5126,
      "count": 42,
      "max": [
        0.9998090267181396,
        0.9986764788627625,
        0.9985758066177368
      ],
      "min": [
        -0.9998090267181396,
        -0.9986764192581177,
        -0.9985756874084473
      ],
      "type": "VEC3"
    },
    {
      "bufferView": 3,
      "byteOffset": 13616,
      "componentType": 5126,
      "count": 42,
      "max": [
        0.9986797571182251,
        0.9998437762260437,
        0.9997450709342957,
        1.0
      ],
      "min": [
        -0.9986797571182251,
        -0.9998527765274048,
        -0.9997450709342957,
        1.0
      ],
      "type": "VEC4"
    },
    {
      "bufferView": 1,
      "byteOffset": 6808,
      "componentType": 5126,
      "count": 42,
      "max": [
        0.6932926774024963,
        0.7616732716560364
      ],
      "min": [
        0.0025612711906433105,
        0.20224745571613312
      ],
      "type": "VEC2"
    },
    {
      "bufferView": 0,
      "byteOffset": 13344,
      "componentType": 5125,
      "count": 132,
      "type": "SCALAR"
    },
    {
      "bufferView": 2,
      "byteOffset": 21432,
      "componentType": 5126,
      "count": 42,
      "max": [
        0.039921436458826065,
        0.1297682523727417,
        0.011809110641479492
      ],
      "min": [
        -0.039921458810567856,
        -0.1297682523727417,
        -0.011809349060058594
      ],
      "type": "VEC3"
    },
    {
      "bufferView": 2,
      "byteOffset": 21936,
      "componentType": 5126,
      "count": 42,
      "max": [
        0.9896266460418701,
        0.9892876744270325,
        0.9991832971572876
      ],
      "min": [
        -0.9896266460418701,
        -0.9892876744270325,
        -0.9991834759712219
      ],
      "type": "VEC3"
    },
    {
      "bufferView": 3,
      "byteOffset": 14288,
      "componentType": 5126,
      "count": 42,
      "max": [
        0.1433054357767105,
        0.1414378583431244,
        0.9894310832023621,
        1.0
      ],
      "min": [
        -0.14330530166625977,
        -0.9998838901519775,
        -0.9899406433105469,
        1.0
      ],
      "type": "VEC4"
    },
    {
      "bufferView": 1,
      "byteOffset": 7144,
      "componentType": 5126,
      "count": 42,
      "max": [
        0.9963936805725098,
        0.9652807712554932
      ],
      "min": [
        0.1036825105547905,
        0.5811436176300049
      ],
      "type": "VEC2"
    },
    {
      "bufferView": 0,
      "byteOffset": 13872,
      "componentType": 5125,
      "count": 132,
      "type": "SCALAR"
    },
    {
      "bufferView": 2,
      "byteOffset": 22440,
      "componentType": 5126,
      "count": 49,
      "max": [
        0.02517545595765114,
        0.025175392627716064,
        0.004501819610595703
      ],
      "min": [
        -0.02517544850707054,
        -0.025175511837005615,
        -0.005507349967956543
      ],
      "type": "VEC3"
    },
    {
      "bufferView": 2,
      "byteOffset": 23028,
      "componentType": 5126,
      "count": 49,
      "max": [
        0.9946326017379761,
        0.994637668132782,
        1.0
      ],
      "min": [
        -0.9946324825286865,
        -0.9946377277374268,
        0.10342076420783997
      ],
      "type": "VEC3"
    },
    {
      "bufferView": 3,
      "byteOffset": 14960,
      "componentType": 5126,
      "count": 49,
      "max": [
        0.996273398399353,
        0.656617283821106,
        0.9912317991256714,
        1.0
      ],
      "min": [
        0.09604004770517349,
        -0.39589065313339233,
        -0.9595951437950134,
        1.0
      ],
      "type": "VEC4"
    },
    {
      "bufferView": 1,
      "byteOffset": 7480,
      "componentType": 5126,
      "count": 49,
      "max": [
        0.8174576163291931,
        0.4929458498954773
      ],
      "min": [
        0.8032458424568176,
        0.47873908281326294
      ],
      "type": "VEC2"
    },
    {
      "bufferView": 0,
      "byteOffset": 14400,
      "componentType": 5125,
      "count": 252,
      "type": "SCALAR"
    },
    {
      "bufferView": 2,
      "byteOffset": 23616,
      "componentType": 5126,
      "count": 48,
      "max": [
        0.004703707993030548,
        0.13077640533447266,
        0.27391237020492554
      ],
      "min": [
        -0.0071839839220047,
        -0.130776047706604,
        -0.2739124894142151
      ],
      "type": "VEC3"
    },
    {
      "bufferView": 2,
      "byteOffset": 24192,
      "componentType": 5126,
      "count": 48,
      "max": [
        1.0,
        0.9999927878379822,
        0.9999671578407288
      ],
      "min": [
        -1.1498652696673162e-08,
        -0.9999927282333374,
        -0.9999671578407288
      ],
      "type": "VEC3"
    },
    {
      "bufferView": 3,
      "byteOffset": 15744,
      "componentType": 5126,
      "count": 48,
      "max": [
        0.9733503460884094,
        0.5336037874221802,
        0.999994158744812,
        1.0
      ],
      "min": [
        -0.9732983112335205,
        -0.4710662364959717,
        0.0019061145139858127,
        1.0
      ],
      "type": "VEC4"
    },
    {
      "bufferView": 1,
      "byteOffset": 7872,
      "componentType": 5126,
      "count": 48,
      "max": [
        0.21697503328323364,
        0.5786105990409851
      ],
      "min": [
        0.002564729657024145,
        0.4582550823688507
      ],
      "type": "VEC2"
    },
    {
      "bufferView": 0,
      "byteOffset": 15408,
      "componentType": 5125,
      "count": 234,
      "type": "SCALAR"
    },
    {
      "bufferView": 2,
      "byteOffset": 24768,
      "componentType": 5126,
      "count": 42,
      "max": [
        0.04999999701976776,
        0.1400001049041748,
        0.2823484539985657
      ],
      "min": [
        -0.04999999701976776,
        -0.1399998664855957,
        -0.2823483347892761
      ],
      "type": "VEC3"
    },
    {
      "bufferView": 2,
      "byteOffset": 25272,
      "componentType": 5126,
      "count": 42,
      "max": [
        0.9998090267181396,
        0.9986764788627625,
        0.9985758066177368
      ],
      "min": [
        -0.9998090267181396,
        -0.9986764192581177,
        -0.9985756874084473
      ],
      "type": "VEC3"
    },
    {
      "bufferView": 3,
      "byteOffset": 16512,
      "componentType": 5126,
      "count": 42,
      "max": [
        0.9986793994903564,
        0.9998437762260437,
        0.9999474287033081,
        1.0
      ],
      "min": [
        -0.9986796975135803,
        -0.9998527765274048,
        -0.9997451305389404,
        1.0
      ],
      "type": "VEC4"
    },
    {
      "bufferView": 1,
      "byteOffset": 8256,
      "componentType": 5126,
      "count": 42,
      "max": [
        0.8313513398170471,
        0.7155999541282654
      ],
      "min": [
        0.0025612751487642527,
        0.21760737895965576
      ],
      "type": "VEC2"
    },
    {
      "bufferView": 0,
      "byteOffset": 16344,
      "componentType": 5125,
      "count": 132,
      "type": "SCALAR"
    },
    {
      "bufferView": 2,
      "byteOffset": 25776,
      "componentType": 5126,
      "count": 42,
      "max": [
        0.039921436458826065,
        0.1297682523727417,
        0.011809110641479492
      ],
      "min": [
        -0.039921458810567856,
        -0.1297682523727417,
        -0.011809349060058594
      ],
      "type": "VEC3"
    },
    {
      "bufferView": 2,
      "byteOffset": 26280,
      "componentType": 5126,
      "count": 42,
      "max": [
        0.9896266460418701,
        0.9892876744270325,
        0.9991832971572876
      ],
      "min": [
        -0.9896266460418701,
        -0.9892876744270325,
        -0.9991834759712219
      ],
      "type": "VEC3"
    },
    {
      "bufferView": 3,
      "byteOffset": 17184,
      "componentType": 5126,
      "count": 42,
      "max": [
        0.9976880550384521,
        0.9982012510299683,
        0.9896395802497864,
        1.0
      ],
      "min": [
        -0.9992446899414063,
        -0.9999423027038574,
        -0.9896383881568909,
        1.0
      ],
      "type": "VEC4"
    },
    {
      "bufferView": 1,
      "byteOffset": 8592,
      "componentType": 5126,
      "count": 42,
      "max": [
        0.9797603487968445,
        0.9974428415298462
      ],
      "min": [
        0.0019143670797348022,
        0.7192167043685913
      ],
      "type": "VEC2"
    },
    {
      "bufferView": 0,
      "byteOffset": 16872,
      "componentType": 5125,
      "count": 132,
      "type": "SCALAR"
    },
    {
      "bufferView": 2,
      "byteOffset": 26784,
      "componentType": 5126,
      "count": 49,
      "max": [
        0.02517545595765114,
        0.02517533302307129,
        0.004501819610595703
      ],
      "min": [
        -0.02517544850707054,
        -0.02517557144165039,
        -0.005507349967956543
      ],
      "type": "VEC3"
    },
    {
      "bufferView": 2,
      "byteOffset": 27372,
      "componentType": 5126,
      "count": 49,
      "max": [
        0.9946325421333313,
        0.9946381449699402,
        1.0
      ],
      "min": [
        -0.9946325421333313,
        -0.9946316480636597,
        0.10341621935367584
      ],
      "type": "VEC3"
    },
    {
      "bufferView": 3,
      "byteOffset": 17856,
      "componentType": 5126,
      "count": 49,
      "max": [
        -0.0961727574467659,
        0.36105048656463623,
        0.9910021424293518,
        1.0
      ],
      "min": [
        -0.9804444313049316,
        -0.6176831722259521,
        -0.9487913846969604,
        1.0
      ],
      "type": "VEC4"
    },
    {
      "bufferView": 1,
      "byteOffset": 8928,
      "componentType": 5126,
      "count": 49,
      "max": [
        0.23622719943523407,
        0.513447642326355
      ],
      "min": [
        0.2220364362001419,
        0.49921754002571106
      ],
      "type": "VEC2"
    },
    {
      "bufferView": 0,
      "byteOffset": 17400,
      "componentType": 5125,
      "count": 252,
      "type": "SCALAR"
    },
    {
      "bufferView": 2,
      "byteOffset": 27960,
      "componentType": 5126,
      "count": 48,
      "max": [
        0.004703707993030548,
        0.1307765245437622,
        0.27391237020492554
      ],
      "min": [
        -0.0071839839220047,
        -0.13077592849731445,
        -0.2739124894142151
      ],
      "type": "VEC3"
    },
    {
      "bufferView": 2,
      "byteOffset": 28536,
      "componentType": 5126,
      "count": 48,
      "max": [
        1.0,
        0.9999927878379822,
        0.9999671578407288
      ],
      "min": [
        -1.1498652696673162e-08,
        -0.9999927282333374,
        -0.9999671578407288
      ],
      "type": "VEC3"
    },
    {
      "bufferView": 3,
      "byteOffset": 18640,
      "componentType": 5126,
      "count": 48,
      "max": [
        0.9733070135116577,
        0.4710691273212433,
        -0.0019058153266087174,
        1.0
      ],
      "min": [
        -0.9733411073684692,
        -0.5336107015609741,
        -0.9999940991401672,
        1.0
      ],
      "type": "VEC4"
    },
    {
      "bufferView": 1,
      "byteOffset": 9320,
      "componentType": 5126,
      "count": 48,
      "max": [
        0.5797149538993835,
        0.5632524490356445
      ],
      "min": [
        0.3644290864467621,
        0.44289693236351013
      ],
      "type": "VEC2"
    },
    {
      "bufferView": 0,
      "byteOffset": 18408,
      "componentType": 5125,
      "count": 234,
      "type": "SCALAR"
    },
    {
      "bufferView": 2,
      "byteOffset": 29112,
      "componentType": 5126,
      "count": 42,
      "max": [
        0.04999999701976776,
        0.2823485732078552,
        0.14000001549720764
      ],
      "min": [
        -0.04999999701976776,
        -0.2823481559753418,
        -0.14000007510185242
      ],
      "type": "VEC3"
    },
    {
      "bufferView": 2,
      "byteOffset": 29616,
      "componentType": 5126,
      "count": 42,
      "max": [
        0.9998090267181396,
        0.998575747013092,
        0.9986764192581177
      ],
      "min": [
        -0.9998090863227844,
        -0.9985758662223816,
        -0.9986764788627625
      ],
      "type": "VEC3"
    },
    {
      "bufferView": 3,
      "byteOffset": 19408,
      "componentType": 5126,
      "count": 42,
      "max": [
        0.9986798167228699,
        0.9999474287033081,
        0.9998423457145691,
        1.0
      ],
      "min": [
        -0.9987236857414246,
        -0.050541989505290985,
        -0.050768256187438965,
        1.0
      ],
      "type": "VEC4"
    },
    {
      "bufferView": 1,
      "byteOffset": 9704,
      "componentType": 5126,
      "count": 42,
      "max": [
        0.9187238216400146,
        0.9243243932723999
      ],
      "min": [
        0.002560035791248083,
        0.002556884428486228
      ],
      "type": "VEC2"
    },
    {
      "bufferView": 0,
      "byteOffset": 19344,
      "componentType": 5125,
      "count": 132,
      "type": "SCALAR"
    },
    {
      "bufferView": 2,
      "byteOffset": 30120,
      "componentType": 5126,
      "count": 42,
      "max": [
        0.039921436458826065,
        0.01180940866470337,
        0.12976832687854767
      ],
      "min": [
        -0.039921458810567856,
        -0.011809051036834717,
        -0.12976820766925812
      ],
      "type": "VEC3"
    },
    {
      "bufferView": 2,
      "byteOffset": 30624,
      "componentType": 5126,
      "count": 42,
      "max": [
        0.9896267056465149,
        0.9991829991340637,
        0.9892877340316772
      ],
      "min": [
        -0.9896267056465149,
        -0.9991835355758667,
        -0.9892880916595459
      ],
      "type": "VEC3"
    },
    {
      "bufferView": 3,
      "byteOffset": 20080,
      "componentType": 5126,
      "count": 42,
      "max": [
        0.14330516755580902,
        0.9894310832023621,
        0.9998840689659119,
        1.0
      ],
      "min": [
        -0.14330540597438812,
        -0.9899408221244812,
        -0.14143802225589752,
        1.0
      ],
      "type": "VEC4"
    },
    {
      "bufferView": 1,
      "byteOffset": 10040,
      "componentType": 5126,
      "count": 42,
      "max": [
        0.9936330318450928,
        0.9448003768920898
      ],
      "min": [
        0.13570605218410492,
        0.32001760601997375
      ],
      "type": "VEC2"
    },
    {
      "bufferView": 0,
      "byteOffset": 19872,
      "componentType": 5125,
      "count": 132,
      "type": "SCALAR"
    },
    {
      "bufferView": 2,
      "byteOffset": 31128,
      "componentType": 5126,
      "count": 49,
      "max": [
        0.02517545595765114,
        0.004501938819885254,
        0.025175482034683228
      ],
      "min": [
        -0.02517544850707054,
        -0.005507230758666992,
        -0.025175422430038452
      ],
      "type": "VEC3"
    },
    {
      "bufferView": 2,
      "byteOffset": 31716,
      "componentType": 5126,
      "count": 49,
      "max": [
        0.9293308854103088,
        1.0,
        0.9293308854103088
      ],
      "min": [
        -0.9293308854103088,
        0.3692481219768524,
        -0.9293308854103088
      ],
      "type": "VEC3"
    },
    {
      "bufferView": 3,
      "byteOffset": 20752,
      "componentType": 5126,
      "count": 49,
      "max": [
        -0.3605506420135498,
        0.9115492701530457,
        0.5503789186477661,
        1.0
      ],
      "min": [
        -0.9839634895324707,
        -0.9121837019920349,
        -0.22791501879692078,
        1.0
      ],
      "type": "VEC4"
    },
    {
      "bufferView": 1,
      "byteOffset": 10376,
      "componentType": 5126,
      "count": 49,
      "max": [
        0.2354852259159088,
        0.47246426343917847
      ],
      "min": [
        0.2212734818458557,
        0.4582575857639313
      ],
      "type": "VEC2"
    },
    {
      "bufferView": 0,
      "byteOffset": 20400,
      "componentType": 5125,
      "count": 252,
      "type": "SCALAR"
    },
    {
      "bufferView": 2,
      "byteOffset": 32304,
      "componentType": 5126,
      "count": 48,
      "max": [
        0.004703707993030548,
        0.27391231060028076,
        0.13077625632286072
      ],
      "min": [
        -0.0071839839220047,
        -0.2739124894142151,
        -0.13077625632286072
      ],
      "type": "VEC3"
    },
    {
      "bufferView": 2,
      "byteOffset": 32880,
      "componentType": 5126,
      "count": 48,
      "max": [
        1.0,
        0.9999671578407288,
        0.9999927282333374
      ],
      "min": [
        -1.149865624938684e-08,
        -0.9999671578407288,
        -0.9999927282333374
      ],
      "type": "VEC3"
    },
    {
      "bufferView": 3,
      "byteOffset": 21536,
      "componentType": 5126,
      "count": 48,
      "max": [
        0.9731281995773315,
        -0.0018668550765141845,
        0.5335894823074341,
        1.0
      ],
      "min": [
        -0.9731268286705017,
        -0.9999940991401672,
        -0.4710679054260254,
        1.0
      ],
      "type": "VEC4"
    },
    {
      "bufferView": 1,
      "byteOffset": 10768,
      "componentType": 5126,
      "count": 48,
      "max": [
        0.7998664975166321,
        0.599095344543457
      ],
      "min": [
        0.5847396850585938,
        0.47874003648757935
      ],
      "type": "VEC2"
    },
    {
      "bufferView": 0,
      "byteOffset": 21408,
      "componentType": 5125,
      "count": 234,
      "type": "SCALAR"
    },
    {
      "bufferView": 2,
      "byteOffset": 33456,
      "componentType": 5126,
      "count": 42,
      "max": [
        0.04999999701976776,
        0.1399998664855957,
        0.2823484539985657
      ],
      "min": [
        -0.04999999701976776,
        -0.1400001049041748,
        -0.2823483347892761
      ],
      "type": "VEC3"
    },
    {
      "bufferView": 2,
      "byteOffset": 33960,
      "componentType": 5126,
      "count": 42,
      "max": [
        0.9998090267181396,
        0.9986764788627625,
        0.9985758066177368
      ],
      "min": [
        -0.9998090267181396,
        -0.9986764788627625,
        -0.9985756874084473
      ],
      "type": "VEC3"
    },
    {
      "bufferView": 3,
      "byteOffset": 22304,
      "componentType": 5126,
      "count": 42,
      "max": [
        0.9986796975135803,
        0.9998437166213989,
        0.9997450709342957,
        1.0
      ],
      "min": [
        -0.9986797571182251,
        -0.9998528361320496,
        -0.9997450709342957,
        1.0
      ],
      "type": "VEC4"
    },
    {
      "bufferView": 1,
      "byteOffset": 11152,
      "componentType": 5126,
      "count": 42,
      "max": [
        0.6932922005653381,
        0.8077563047409058
      ],
      "min": [
        0.002560799242928624,
        0.2022494077682495
      ],
      "type": "VEC2"
    },
    {
      "bufferView": 0,
      "byteOffset": 22344,
      "componentType": 5125,
      "count": 132,
      "type": "SCALAR"
    },
    {
      "bufferView": 2,
      "byteOffset": 34464,
      "componentType": 5126,
      "count": 42,
      "max": [
        0.039921436458826065,
        0.1297682523727417,
        0.011809349060058594
      ],
      "min": [
        -0.039921458810567856,
        -0.1297682523727417,
        -0.011809110641479492
      ],
      "type": "VEC3"
    },
    {
      "bufferView": 2,
      "byteOffset": 34968,
      "componentType": 5126,
      "count": 42,
      "max": [
        0.9896267056465149,
        0.9892876744270325,
        0.9991832375526428
      ],
      "min": [
        -0.9896266460418701,
        -0.9892876744270325,
        -0.9991834759712219
      ],
      "type": "VEC3"
    },
    {
      "bufferView": 3,
      "byteOffset": 22976,
      "componentType": 5126,
      "count": 42,
      "max": [
        0.14330530166625977,
        0.9998840093612671,
        0.9894310235977173,
        1.0
      ],
      "min": [
        -0.14330542087554932,
        -0.14143788814544678,
        -0.9899406433105469,
        1.0
      ],
      "type": "VEC4"
    },
    {
      "bufferView": 1,
      "byteOffset": 11488,
      "componentType": 5126,
      "count": 42,
      "max": [
        0.9943034648895264,
        0.9459056854248047
      ],
      "min": [
        0.13533596694469452,
        0.0025640397798269987
      ],
      "type": "VEC2"
    },
    {
      "bufferView": 0,
      "byteOffset": 22872,
      "componentType": 5125,
      "count": 132,
      "type": "SCALAR"
    },
    {
      "bufferView": 2,
      "byteOffset": 35472,
      "componentType": 5126,
      "count": 49,
      "max": [
        0.02517545595765114,
        0.02517545223236084,
        0.0045015811920166016
      ],
      "min": [
        -0.02517544850707054,
        -0.02517545223236084,
        -0.0055075883865356445
      ],
      "type": "VEC3"
    },
    {
      "bufferView": 2,
      "byteOffset": 36060,
      "componentType": 5126,
      "count": 49,
      "max": [
        0.9946326017379761,
        0.9946377873420715,
        1.0
      ],
      "min": [
        -0.9946325421333313,
        -0.9946377277374268,
        0.10342055559158325
      ],
      "type": "VEC3"
    },
    {
      "bufferView": 3,
      "byteOffset": 23648,
      "componentType": 5126,
      "count": 49,
      "max": [
        0.5819575190544128,
        -0.10175490379333496,
        0.9786301255226135,
        1.0
      ],
      "min": [
        -0.35868728160858154,
        -0.9874023795127869,
        -0.9786490201950073,
        1.0
      ],
      "type": "VEC4"
    },
    {
      "bufferView": 1,
      "byteOffset": 11824,
      "componentType": 5126,
      "count": 49,
      "max": [
        0.23622912168502808,
        0.49294763803482056
      ],
      "min": [
        0.2220224291086197,
        0.47873592376708984
      ],
      "type": "VEC2"
    },
    {
      "bufferView": 0,
      "byteOffset": 23400,
      "componentType": 5125,
      "count": 252,
      "type": "SCALAR"
    },
    {
      "bufferView": 2,
      "byteOffset": 36648,
      "componentType": 5126,
      "count": 48,
      "max": [
        0.004703707993030548,
        0.13077622652053833,
        0.27391231060028076
      ],
      "min": [
        -0.0071839839220047,
        -0.13077622652053833,
        -0.2739124894142151
      ],
      "type": "VEC3"
    },
    {
      "bufferView": 2,
      "byteOffset": 37224,
      "componentType": 5126,
      "count": 48,
      "max": [
        1.0,
        0.9999927282333374,
        0.9999671578407288
      ],
      "min": [
        -1.1498652696673162e-08,
        -0.9999927282333374,
        -0.9999671578407288
      ],
      "type": "VEC3"
    },
    {
      "bufferView": 3,
      "byteOffset": 24432,
      "componentType": 5126,
      "count": 48,
      "max": [
        0.9680582880973816,
        0.999988317489624,
        0.47663185000419617,
        1.0
      ],
      "min": [
        -0.9680575132369995,
        0.0009614220471121371,
        -0.5566064715385437,
        1.0
      ],
      "type": "VEC4"
    },
    {
      "bufferView": 1,
      "byteOffset": 12216,
      "componentType": 5126,
      "count": 48,
      "max": [
        0.8187607526779175,
        0.8148593902587891
      ],
      "min": [
        0.698405385017395,
        0.6016226410865784
      ],
      "type": "VEC2"
    },
    {
      "bufferView": 0,
      "byteOffset": 24408,
      "componentType": 5125,
      "count": 234,
      "type": "SCALAR"
    },
    {
      "bufferView": 2,
      "byteOffset": 37800,
      "componentType": 5126,
      "count": 49,
      "max": [
        0.018968403339385986,
        0.018968403339385986,
        0.005507051944732666
      ],
      "min": [
        -0.01896839216351509,
        -0.018968403339385986,
        -0.00450211763381958
      ],
      "type": "VEC3"
    },
    {
      "bufferView": 2,
      "byteOffset": 38388,
      "componentType": 5126,
      "count": 49,
      "max": [
        0.9969443678855896,
        0.9969429969787598,
        -0.07808581739664078
      ],
      "min": [
        -0.9969441890716553,
        -0.9969440698623657,
        -1.0
      ],
      "type": "VEC3"
    },
    {
      "bufferView": 3,
      "byteOffset": 25200,
      "componentType": 5126,
      "count": 49,
      "max": [
        0.38746127486228943,
        -0.07562573254108429,
        0.972752034664154,
        1.0
      ],
      "min": [
        -0.666239321231842,
        -0.9872023463249207,
        -0.975456178188324,
        1.0
      ],
      "type": "VEC4"
    },
    {
      "bufferView": 1,
      "byteOffset": 12600,
      "componentType": 5126,
      "count": 49,
      "max": [
        0.696991503238678,
        0.2539181113243103
      ],
      "min": [
        0.6862972378730774,
        0.24320785701274872
      ],
      "type": "VEC2"
    },
    {
      "bufferView": 0,
      "byteOffset": 25344,
      "componentType": 5125,
      "count": 252,
      "type": "SCALAR"
    },
    {
      "bufferView": 2,
      "byteOffset": 38976,
      "componentType": 5126,
      "count": 26,
      "max": [
        0.015500657260417938,
        0.0151938796043396,
        0.27019286155700684
      ],
      "min": [
        -0.015500657260417938,
        -0.015193939208984375,
        -0.2701929807662964
      ],
      "type": "VEC3"
    },
    {
      "bufferView": 2,
      "byteOffset": 39288,
      "componentType": 5126,
      "count": 26,
      "max": [
        1.0,
        1.0,
        0.0
      ],
      "min": [
        -1.0,
        -1.0,
        0.0
      ],
      "type": "VEC3"
    },
    {
      "bufferView": 3,
      "byteOffset": 25984,
      "componentType": 5126,
      "count": 26,
      "max": [
        0.9999957084655762,
        0.9999946355819702,
        0.0032986565493047237,
        1.0
      ],
      "min": [
        -0.9999955892562866,
        -0.9999948143959045,
        0.0029433867894113064,
        1.0
      ],
      "type": "VEC4"
    },
    {
      "bufferView": 1,
      "byteOffset": 12992,
      "componentType": 5126,
      "count": 26,
      "max": [
        0.9845860004425049,
        0.764519453048706
      ],
      "min": [
        0.9515594244003296,
        0.6067546606063843
      ],
      "type": "VEC2"
    },
    {
      "bufferView": 0,
      "byteOffset": 26352,
      "componentType": 5125,
      "count": 72,
      "type": "SCALAR"
    },
    {
      "bufferView": 2,
      "byteOffset": 39600,
      "componentType": 5126,
      "count": 49,
      "max": [
        0.018968403339385986,
        0.01896846294403076,
        0.005507051944732666
      ],
      "min": [
        -0.01896839216351509,
        -0.01896834373474121,
        -0.00450211763381958
      ],
      "type": "VEC3"
    },
    {
      "bufferView": 2,
      "byteOffset": 40188,
      "componentType": 5126,
      "count": 49,
      "max": [
        0.9969443678855896,
        0.9969429969787598,
        -0.07808548212051392
      ],
      "min": [
        -0.9969441890716553,
        -0.9969440698623657,
        -1.0
      ],
      "type": "VEC3"
    },
    {
      "bufferView": 3,
      "byteOffset": 26400,
      "componentType": 5126,
      "count": 49,
      "max": [
        0.18971197307109833,
        0.06048283353447914,
        0.9802449941635132,
        1.0
      ],
      "min": [
        -0.8526538014411926,
        -0.8421815633773804,
        -0.972723662853241,
        1.0
      ],
      "type": "VEC4"
    },
    {
      "bufferView": 1,
      "byteOffset": 13200,
      "componentType": 5126,
      "count": 49,
      "max": [
        0.6969926357269287,
        0.2334366887807846
      ],
      "min": [
        0.6862900853157043,
        0.22273413836956024
      ],
      "type": "VEC2"
    },
    {
      "bufferView": 0,
      "byteOffset": 26640,
      "componentType": 5125,
      "count": 252,
      "type": "SCALAR"
    },
    {
      "bufferView": 2,
      "byteOffset": 40776,
      "componentType": 5126,
      "count": 26,
      "max": [
        0.015500657260417938,
        0.0151938796043396,
        0.27019286155700684
      ],
      "min": [
        -0.015500657260417938,
        -0.015193939208984375,
        -0.2701929807662964
      ],
      "type": "VEC3"
    },
    {
      "bufferView": 2,
      "byteOffset": 41088,
      "componentType": 5126,
      "count": 26,
      "max": [
        1.0,
        1.0,
        0.0
      ],
      "min": [
        -1.0,
        -1.0,
        0.0
      ],
      "type": "VEC3"
    },
    {
      "bufferView": 3,
      "byteOffset": 27184,
      "componentType": 5126,
      "count": 26,
      "max": [
        0.9999957084655762,
        0.9999946355819702,
        -0.0029379604384303093,
        1.0
      ],
      "min": [
        -0.9999956488609314,
        -0.999994695186615,
        -0.003320499788969755,
        1.0
      ],
      "type": "VEC4"
    },
    {
      "bufferView": 1,
      "byteOffset": 13592,
      "componentType": 5126,
      "count": 26,
      "max": [
        0.9818255305290222,
        0.6057966947555542
      ],
      "min": [
        0.9487989544868469,
        0.44803187251091003
      ],
      "type": "VEC2"
    },
    {
      "bufferView": 0,
      "byteOffset": 27648,
      "componentType": 5125,
      "count": 72,
      "type": "SCALAR"
    },
    {
      "bufferView": 2,
      "byteOffset": 41400,
      "componentType": 5126,
      "count": 49,
      "max": [
        0.018968403339385986,
        0.018968403339385986,
        0.005507051944732666
      ],
      "min": [
        -0.01896839216351509,
        -0.018968403339385986,
        -0.00450211763381958
      ],
      "type": "VEC3"
    },
    {
      "bufferView": 2,
      "byteOffset": 41988,
      "componentType": 5126,
      "count": 49,
      "max": [
        0.9969443678855896,
        0.9969429969787598,
        -0.07808581739664078
      ],
      "min": [
        -0.9969441890716553,
        -0.9969440698623657,
        -1.0
      ],
      "type": "VEC3"
    },
    {
      "bufferView": 3,
      "byteOffset": 27600,
      "componentType": 5126,
      "count": 49,
      "max": [
        0.6032096743583679,
        0.9983271956443787,
        0.9814841151237488,
        1.0
      ],
      "min": [
        -0.38632485270500183,
        0.07658166438341141,
        -0.9772853851318359,
        1.0
      ],
      "type": "VEC4"
    },
    {
      "bufferView": 1,
      "byteOffset": 13800,
      "componentType": 5126,
      "count": 49,
      "max": [
        0.6969820261001587,
        0.21296213567256927
      ],
      "min": [
        0.6862835884094238,
        0.20225054025650024
      ],
      "type": "VEC2"
    },
    {
      "bufferView": 0,
      "byteOffset": 27936,
      "componentType": 5125,
      "count": 252,
      "type": "SCALAR"
    },
    {
      "bufferView": 2,
      "byteOffset": 42576,
      "componentType": 5126,
      "count": 26,
      "max": [
        0.015500657260417938,
        0.0151938796043396,
        0.27019286155700684
      ],
      "min": [
        -0.015500657260417938,
        -0.015193939208984375,
        -0.2701929807662964
      ],
      "type": "VEC3"
    },
    {
      "bufferView": 2,
      "byteOffset": 42888,
      "componentType": 5126,
      "count": 26,
      "max": [
        1.0,
        1.0,
        0.0
      ],
      "min": [
        -1.0,
        -1.0,
        0.0
      ],
      "type": "VEC3"
    },
    {
      "bufferView": 3,
      "byteOffset": 28384,
      "componentType": 5126,
      "count": 26,
      "max": [
        0.9999957084655762,
        0.999994695186615,
        0.0033184317871928215,
        1.0
      ],
      "min": [
        -0.9999957084655762,
        -0.9999948143959045,
        0.0029504818376153708,
        1.0
      ],
      "type": "VEC4"
    },
    {
      "bufferView": 1,
      "byteOffset": 14192,
      "componentType": 5126,
      "count": 26,
      "max": [
        0.9107329845428467,
        0.8106077313423157
      ],
      "min": [
        0.8777063488960266,
        0.6528428792953491
      ],
      "type": "VEC2"
    },
    {
      "bufferView": 0,
      "byteOffset": 28944,
      "componentType": 5125,
      "count": 72,
      "type": "SCALAR"
    }
  ],
  "asset": {
    "extras": {
      "author": "Outlier Spa (https://sketchfab.com/outlier_spa)",
      "license": "CC-BY-4.0 (http://creativecommons.org/licenses/by/4.0/)",
      "source": "https://sketchfab.com/3d-models/electrical-boxes-e5a058d5210448e5b2640cdb3fbcb163",
      "title": "Electrical Boxes"
    },
    "generator": "Sketchfab-13.42.0",
    "version": "2.0"
  },
  "bufferViews": [
    {
      "buffer": 0,
      "byteLength": 29232,
      "name": "floatBufferViews",
      "target": 34963
    },
    {
      "buffer": 0,
      "byteLength": 14400,
      "byteOffset": 29232,
      "byteStride": 8,
      "name": "floatBufferViews",
      "target": 34962
    },
    {
      "buffer": 0,
      "byteLength": 43200,
      "byteOffset": 43632,
      "byteStride": 12,
      "name": "floatBufferViews",
      "target": 34962
    },
    {
      "buffer": 0,
      "byteLength": 28800,
      "byteOffset": 86832,
      "byteStride": 16,
      "name": "floatBufferViews",
      "target": 34962
    }
  ],
  "buffers": [
    {
      "byteLength": 115632,
      "uri": "scene.bin"
    }
  ],
  "images": [
    {
      "uri": "textures/electrical_boxes_baseColor.png"
    },
    {
      "uri": "textures/electrical_boxes_metallicRoughness.png"
    },
    {
      "uri": "textures/electrical_boxes_normal.png"
    }
  ],
  "materials": [
    {
      "doubleSided": true,
      "name": "electrical_boxes",
      "normalTexture": {
        "index": 2
      },
      "occlusionTexture": {
        "index": 1
      },
      "pbrMetallicRoughness": {
        "baseColorTexture": {
          "index": 0
        },
        "metallicRoughnessTexture": {
          "index": 1
        }
      }
    }
  ],
  "meshes": [
    {
      "name": "modular-box-02_electrical boxes_0",
      "primitives": [
        {
          "attributes": {
            "NORMAL": 1,
            "POSITION": 0,
            "TANGENT": 2,
            "TEXCOORD_0": 3
          },
          "indices": 4,
          "material": 0,
          "mode": 4
        }
      ]
    },
    {
      "name": "modular-box-03_electrical boxes_0",
      "primitives": [
        {
          "attributes": {
            "NORMAL": 6,
            "POSITION": 5,
            "TANGENT": 7,
            "TEXCOORD_0": 8
          },
          "indices": 9,
          "material": 0,
          "mode": 4
        }
      ]
    },
    {
      "name": "modular-box-01_electrical boxes_0",
      "primitives": [
        {
          "attributes": {
            "NORMAL": 11,
            "POSITION": 10,
            "TANGENT": 12,
            "TEXCOORD_0": 13
          },
          "indices": 14,
          "material": 0,
          "mode": 4
        }
      ]
    },
    {
      "name": "modular-box-04_electrical boxes_0",
      "primitives": [
        {
          "attributes": {
            "NORMAL": 16,
            "POSITION": 15,
            "TANGENT": 17,
            "TEXCOORD_0": 18
          },
          "indices": 19,
          "material": 0,
          "mode": 4
        }
      ]
    },
    {
      "name": "modular-box-05_electrical boxes_0",
      "primitives": [
        {
          "attributes": {
            "NORMAL": 21,
            "POSITION": 20,
            "TANGENT": 22,
            "TEXCOORD_0": 23
          },
          "indices": 24,
          "material": 0,
          "mode": 4
        }
      ]
    },
    {
      "name": "modular-handle-01_electrical boxes_0",
      "primitives": [
        {
          "attributes": {
            "NORMAL": 26,
            "POSITION": 25,
            "TANGENT": 27,
            "TEXCOORD_0": 28
          },
          "indices": 29,
          "material": 0,
          "mode": 4
        }
      ]
    },
    {
      "name": "modular-box-06_electrical boxes_0",
      "primitives": [
        {
          "attributes": {
            "NORMAL": 31,
            "POSITION": 30,
            "TANGENT": 32,
            "TEXCOORD_0": 33
          },
          "indices": 34,
          "material": 0,
          "mode": 4
        }
      ]
    },
    {
      "name": "modular-tube-a01_electrical boxes_0",
      "primitives": [
        {
          "attributes": {
            "NORMAL": 36,
            "POSITION": 35,
            "TANGENT": 37,
            "TEXCOORD_0": 38
          },
          "indices": 39,
          "material": 0,
          "mode": 4
        }
      ]
    },
    {
      "name": "modular-tube-a02_electrical boxes_0",
      "primitives": [
        {
          "attributes": {
            "NORMAL": 41,
            "POSITION": 40,
            "TANGENT": 42,
            "TEXCOORD_0": 43
          },
          "indices": 44,
          "material": 0,
          "mode": 4
        }
      ]
    },
    {
      "name": "modular-tube-b06_electrical boxes_0",
      "primitives": [
        {
          "attributes": {
            "NORMAL": 46,
            "POSITION": 45,
            "TANGENT": 47,
            "TEXCOORD_0": 48
          },
          "indices": 49,
          "material": 0,
          "mode": 4
        }
      ]
    },
    {
      "name": "modular-tube-b04_electrical boxes_0",
      "primitives": [
        {
          "attributes": {
            "NORMAL": 51,
            "POSITION": 50,
            "TANGENT": 52,
            "TEXCOORD_0": 53
          },
          "indices": 54,
          "material": 0,
          "mode": 4
        }
      ]
    },
    {
      "name": "modular-tube-b05_electrical boxes_0",
      "primitives": [
        {
          "attributes": {
            "NORMAL": 56,
            "POSITION": 55,
            "TANGENT": 57,
            "TEXCOORD_0": 58
          },
          "indices": 59,
          "material": 0,
          "mode": 4
        }
      ]
    },
    {
      "name": "modular-box-group-02.000_electrical boxes_0",
      "primitives": [
        {
          "attributes": {
            "NORMAL": 61,
            "POSITION": 60,
            "TANGENT": 62,
            "TEXCOORD_0": 63
          },
          "indices": 64,
          "material": 0,
          "mode": 4
        }
      ]
    },
    {
      "name": "modular-box-group-02.001_electrical boxes_0",
      "primitives": [
        {
          "attributes": {
            "NORMAL": 66,
            "POSITION": 65,
            "TANGENT": 67,
            "TEXCOORD_0": 68
          },
          "indices": 69,
          "material": 0,
          "mode": 4
        }
      ]
    },
    {
      "name": "modular-box-group-02.002_electrical boxes_0",
      "primitives": [
        {
          "attributes": {
            "NORMAL": 71,
            "POSITION": 70,
            "TANGENT": 72,
            "TEXCOORD_0": 73
          },
          "indices": 74,
          "material": 0,
          "mode": 4
        }
      ]
    },
    {
      "name": "modular-box-group-02.003_electrical boxes_0",
      "primitives": [
        {
          "attributes": {
            "NORMAL": 76,
            "POSITION": 75,
            "TANGENT": 77,
            "TEXCOORD_0": 78
          },
          "indices": 79,
          "material": 0,
          "mode": 4
        }
      ]
    },
    {
      "name": "modular-box-group-01.000_electrical boxes_0",
      "primitives": [
        {
          "attributes": {
            "NORMAL": 81,
            "POSITION": 80,
            "TANGENT": 82,
            "TEXCOORD_0": 83
          },
          "indices": 84,
          "material": 0,
          "mode": 4
        }
      ]
    },
    {
      "name": "modular-box-group-01.001_electrical boxes_0",
      "primitives": [
        {
          "attributes": {
            "NORMAL": 86,
            "POSITION": 85,
            "TANGENT": 87,
            "TEXCOORD_0": 88
          },
          "indices": 89,
          "material": 0,
          "mode": 4
        }
      ]
    },
    {
      "name": "modular-box-group-01.002_electrical boxes_0",
      "primitives": [
        {
          "attributes": {
            "NORMAL": 91,
            "POSITION": 90,
            "TANGENT": 92,
            "TEXCOORD_0": 93
          },
          "indices": 94,
          "material": 0,
          "mode": 4
        }
      ]
    },
    {
      "name": "modular-box-group-01.003_electrical boxes_0",
      "primitives": [
        {
          "attributes": {
            "NORMAL": 96,
            "POSITION": 95,
            "TANGENT": 97,
            "TEXCOORD_0": 98
          },
          "indices": 99,
          "material": 0,
          "mode": 4
        }
      ]
    },
    {
      "name": "modular-box-group-03.000_electrical boxes_0",
      "primitives": [
        {
          "attributes": {
            "NORMAL": 101,
            "POSITION": 100,
            "TANGENT": 102,
            "TEXCOORD_0": 103
          },
          "indices": 104,
          "material": 0,
          "mode": 4
        }
      ]
    },
    {
      "name": "modular-box-group-03.001_electrical boxes_0",
      "primitives": [
        {
          "attributes": {
            "NORMAL": 106,
            "POSITION": 105,
            "TANGENT": 107,
            "TEXCOORD_0": 108
          },
          "indices": 109,
          "material": 0,
          "mode": 4
        }
      ]
    },
    {
      "name": "modular-box-group-03.002_electrical boxes_0",
      "primitives": [
        {
          "attributes": {
            "NORMAL": 111,
            "POSITION": 110,
            "TANGENT": 112,
            "TEXCOORD_0": 113
          },
          "indices": 114,
          "material": 0,
          "mode": 4
        }
      ]
    },
    {
      "name": "modular-box-group-03.003_electrical boxes_0",
      "primitives": [
        {
          "attributes": {
            "NORMAL": 116,
            "POSITION": 115,
            "TANGENT": 117,
            "TEXCOORD_0": 118
          },
          "indices": 119,
          "material": 0,
          "mode": 4
        }
      ]
    },
    {
      "name": "modular-box-group-04.000_electrical boxes_0",
      "primitives": [
        {
          "attributes": {
            "NORMAL": 121,
            "POSITION": 120,
            "TANGENT": 122,
            "TEXCOORD_0": 123
          },
          "indices": 124,
          "material": 0,
          "mode": 4
        }
      ]
    },
    {
      "name": "modular-box-group-04.001_electrical boxes_0",
      "primitives": [
        {
          "attributes": {
            "NORMAL": 126,
            "POSITION": 125,
            "TANGENT": 127,
            "TEXCOORD_0": 128
          },
          "indices": 129,
          "material": 0,
          "mode": 4
        }
      ]
    },
    {
      "name": "modular-box-group-04.002_electrical boxes_0",
      "primitives": [
        {
          "attributes": {
            "NORMAL": 131,
            "POSITION": 130,
            "TANGENT": 132,
            "TEXCOORD_0": 133
          },
          "indices": 134,
          "material": 0,
          "mode": 4
        }
      ]
    },
    {
      "name": "modular-box-group-04.003_electrical boxes_0",
      "primitives": [
        {
          "attributes": {
            "NORMAL": 136,
            "POSITION": 135,
            "TANGENT": 137,
            "TEXCOORD_0": 138
          },
          "indices": 139,
          "material": 0,
          "mode": 4
        }
      ]
    },
    {
      "name": "modular-box-group-04.004_electrical boxes_0",
      "primitives": [
        {
          "attributes": {
            "NORMAL": 141,
            "POSITION": 140,
            "TANGENT": 142,
            "TEXCOORD_0": 143
          },
          "indices": 144,
          "material": 0,
          "mode": 4
        }
      ]
    },
    {
      "name": "modular-tube-b01_electrical boxes_0",
      "primitives": [
        {
          "attributes": {
            "NORMAL": 146,
            "POSITION": 145,
            "TANGENT": 147,
            "TEXCOORD_0": 148
          },
          "indices": 149,
          "material": 0,
          "mode": 4
        }
      ]
    },
    {
      "name": "modular-box-group-04.005_electrical boxes_0",
      "primitives": [
        {
          "attributes": {
            "NORMAL": 151,
            "POSITION": 150,
            "TANGENT": 152,
            "TEXCOORD_0": 153
          },
          "indices": 154,
          "material": 0,
          "mode": 4
        }
      ]
    },
    {
      "name": "modular-tube-b02_electrical boxes_0",
      "primitives": [
        {
          "attributes": {
            "NORMAL": 156,
            "POSITION": 155,
            "TANGENT": 157,
            "TEXCOORD_0": 158
          },
          "indices": 159,
          "material": 0,
          "mode": 4
        }
      ]
    },
    {
      "name": "modular-box-group-04.006_electrical boxes_0",
      "primitives": [
        {
          "attributes": {
            "NORMAL": 161,
            "POSITION": 160,
            "TANGENT": 162,
            "TEXCOORD_0": 163
          },
          "indices": 164,
          "material": 0,
          "mode": 4
        }
      ]
    },
    {
      "name": "modular-tube-b03_electrical boxes_0",
      "primitives": [
        {
          "attributes": {
            "NORMAL": 166,
            "POSITION": 165,
            "TANGENT": 167,
            "TEXCOORD_0": 168
          },
          "indices": 169,
          "material": 0,
          "mode": 4
        }
      ]
    }
  ],
  "nodes": [
    {
      "children": [
        1
      ],
      "matrix": [
        1.0,
        0.0,
        0.0,
        0.0,
        0.0,
        2.220446049250313e-16,
        -1.0,
        0.0,
        0.0,
        1.0,
        2.220446049250313e-16,
        0.0,
        0.0,
        0.0,
        0.0,
        1.0
      ],
      "name": "Sketchfab_model"
    },
    {
      "children": [
        2
      ],
      "matrix": [
        0.009999999776482582,
        0.0,
        0.0,
        0.0,
        0.0,
        0.0,
        0.009999999776482582,
        0.0,
        0.0,
        -0.009999999776482582,
        0.0,
        0.0,
        0.0,
        0.0,
        0.0,
        1.0
      ],
      "name": "electrical boxes.fbx"
    },
    {
      "children": [
        3,
        5,
        7,
        9,
        11,
        13,
        15,
        17,
        19,
        21,
        23,
        25,
        27,
        29,
        31,
        33,
        35,
        37,
        39,
        41,
        43,
        45,
        47,
        49,
        51,
        53,
        55,
        57,
        59,
        61,
        63,
        65,
        67,
        69
      ],
      "name": "RootNode"
    },
    {
      "children": [
        4
      ],
      "matrix": [
        100.0,
        0.0,
        0.0,
        0.0,
        0.0,
        -1.629206793918314e-05,
        -99.99999999999868,
        0.0,
        0.0,
        99.99999999999868,
        -1.629206793918314e-05,
        0.0,
        10.060867309570313,
        139.08729553222656,
        6.984919309616089e-08,
        1.0
      ],
      "name": "modular-box-02"
    },
    {
      "mesh": 0,
      "name": "modular-box-02_electrical boxes_0"
    },
    {
      "children": [
        6
      ],
      "matrix": [
        100.0,
        0.0,
        0.0,
        0.0,
        0.0,
        -1.629206793918314e-05,
        -99.99999999999868,
        0.0,
        0.0,
        99.99999999999868,
        -1.629206793918314e-05,
        0.0,
        5.855458736419678,
        160.94093322753906,
        35.60860061645508,
        1.0
      ],
      "name": "modular-box-03"
    },
    {
      "mesh": 1,
      "name": "modular-box-03_electrical boxes_0"
    },
    {
      "children": [
        8
      ],
      "matrix": [
        100.0,
        0.0,
        0.0,
        0.0,
        0.0,
        -1.629206793918314e-05,
        -99.99999999999868,
        0.0,
        0.0,
        99.99999999999868,
        -1.629206793918314e-05,
        0.0,
        7.451324939727783,
        185.71351623535156,
        -55.97455978393555,
        1.0
      ],
      "name": "modular-box-01"
    },
    {
      "mesh": 2,
      "name": "modular-box-01_electrical boxes_0"
    },
    {
      "children": [
        10
      ],
      "matrix": [
        100.0,
        0.0,
        0.0,
        0.0,
        0.0,
        -1.629206793918314e-05,
        -99.99999999999868,
        0.0,
        0.0,
        99.99999999999868,
        -1.629206793918314e-05,
        0.0,
        5.8519062995910645,
        164.98703002929688,
        89.95553588867188,
        1.0
      ],
      "name": "modular-box-04"
    },
    {
      "mesh": 3,
      "name": "modular-box-04_electrical boxes_0"
    },
    {
      "children": [
        12
      ],
      "matrix": [
        100.0,
        0.0,
        0.0,
        0.0,
        0.0,
        -1.629206793918314e-05,
        -99.99999999999868,
        0.0,
        0.0,
        99.99999999999868,
        -1.629206793918314e-05,
        0.0,
        5.000000476837158,
        91.82588195800781,
        36.478458404541016,
        1.0
      ],
      "name": "modular-box-05"
    },
    {
      "mesh": 4,
      "name": "modular-box-05_electrical boxes_0"
    },
    {
      "children": [
        14
      ],
      "matrix": [
        100.0,
        0.0,
        0.0,
        0.0,
        0.0,
        -1.629206793918314e-05,
        -99.99999999999868,
        0.0,
        0.0,
        99.99999999999868,
        -1.629206793918314e-05,
        0.0,
        11.6304931640625,
        91.82588195800781,
        27.896881103515625,
        1.0
      ],
      "name": "modular-handle-01"
    },
    {
      "mesh": 5,
      "name": "modular-handle-01_electrical boxes_0"
    },
    {
      "children": [
        16
      ],
      "matrix": [
        100.0,
        0.0,
        0.0,
        0.0,
        0.0,
        -1.629206793918314e-05,
        -99.99999999999868,
        0.0,
        0.0,
        99.99999999999868,
        -1.629206793918314e-05,
        0.0,
        7.831188201904297,
        90.1897964477539,
        0.006388940382748842,
        1.0
      ],
      "name": "modular-box-06"
    },
    {
      "mesh": 6,
      "name": "modular-box-06_electrical boxes_0"
    },
    {
      "children": [
        18
      ],
      "matrix": [
        100.0,
        0.0,
        0.0,
        0.0,
        0.0,
        -1.629206793918314e-05,
        -99.99999999999868,
        0.0,
        0.0,
        99.99999999999868,
        -1.629206793918314e-05,
        0.0,
        5.000000476837158,
        39.93684768676758,
        0.006387072615325451,
        1.0
      ],
      "name": "modular-tube-a01"
    },
    {
      "mesh": 7,
      "name": "modular-tube-a01_electrical boxes_0"
    },
    {
      "children": [
        20
      ],
      "matrix": [
        100.0,
        0.0,
        0.0,
        0.0,
        0.0,
        -1.629206793918314e-05,
        -99.99999999999868,
        0.0,
        0.0,
        99.99999999999868,
        -1.629206793918314e-05,
        0.0,
        4.999997615814209,
        96.67349243164063,
        -20.776058197021484,
        1.0
      ],
      "name": "modular-tube-a02"
    },
    {
      "mesh": 8,
      "name": "modular-tube-a02_electrical boxes_0"
    },
    {
      "children": [
        22
      ],
      "matrix": [
        100.0,
        0.0,
        0.0,
        0.0,
        0.0,
        -1.629206793918314e-05,
        -99.99999999999868,
        0.0,
        0.0,
        99.99999999999868,
        -1.629206793918314e-05,
        0.0,
        4.999999523162842,
        90.06822204589844,
        -35.00654220581055,
        1.0
      ],
      "name": "modular-tube-b06"
    },
    {
      "mesh": 9,
      "name": "modular-tube-b06_electrical boxes_0"
    },
    {
      "children": [
        24
      ],
      "matrix": [
        100.0,
        0.0,
        0.0,
        0.0,
        0.0,
        -1.629206793918314e-05,
        -99.99999999999868,
        0.0,
        0.0,
        99.99999999999868,
        -1.629206793918314e-05,
        0.0,
        5.000000476837158,
        87.12491607666016,
        -18.952638626098633,
        1.0
      ],
      "name": "modular-tube-b04"
    },
    {
      "mesh": 10,
      "name": "modular-tube-b04_electrical boxes_0"
    },
    {
      "children": [
        26
      ],
      "matrix": [
        100.0,
        0.0,
        0.0,
        0.0,
        0.0,
        -1.629206793918314e-05,
        -99.99999999999868,
        0.0,
        0.0,
        99.99999999999868,
        -1.629206793918314e-05,
        0.0,
        5.000000476837158,
        105.3436508178711,
        -38.28593063354492,
        1.0
      ],
      "name": "modular-tube-b05"
    },
    {
      "mesh": 11,
      "name": "modular-tube-b05_electrical boxes_0"
    },
    {
      "children": [
        28
      ],
      "matrix": [
        100.0,
        0.0,
        0.0,
        0.0,
        0.0,
        -1.629206793918314e-05,
        -99.99999999999868,
        0.0,
        0.0,
        99.99999999999868,
        -1.629206793918314e-05,
        0.0,
        4.999999523162842,
        66.94577026367188,
        75.95542907714844,
        1.0
      ],
      "name": "modular-box-group-02.000"
    },
    {
      "mesh": 12,
      "name": "modular-box-group-02.000_electrical boxes_0"
    },
    {
      "children": [
        30
      ],
      "matrix": [
        100.0,
        0.0,
        0.0,
        0.0,
        0.0,
        -1.629206793918314e-05,
        -99.99999999999868,
        0.0,
        0.0,
        99.99999999999868,
        -1.629206793918314e-05,
        0.0,
        5.000000953674316,
        96.36157989501953,
        75.95540618896484,
        1.0
      ],
      "name": "modular-box-group-02.001"
    },
    {
      "mesh": 13,
      "name": "modular-box-group-02.001_electrical boxes_0"
    },
    {
      "children": [
        32
      ],
      "matrix": [
        100.0,
        0.0,
        0.0,
        0.0,
        0.0,
        -1.629206793918314e-05,
        -99.99999999999868,
        0.0,
        0.0,
        99.99999999999868,
        -1.629206793918314e-05,
        0.0,
        4.999999523162842,
        98.09319305419922,
        75.95540618896484,
        1.0
      ],
      "name": "modular-box-group-02.002"
    },
    {
      "mesh": 14,
      "name": "modular-box-group-02.002_electrical boxes_0"
    },
    {
      "children": [
        34
      ],
      "matrix": [
        100.0,
        0.0,
        0.0,
        0.0,
        0.0,
        -1.629206793918314e-05,
        -99.99999999999868,
        0.0,
        0.0,
        99.99999999999868,
        -1.629206793918314e-05,
        0.0,
        10.718398094177246,
        66.9457778930664,
        75.95537567138672,
        1.0
      ],
      "name": "modular-box-group-02.003"
    },
    {
      "mesh": 15,
      "name": "modular-box-group-02.003_electrical boxes_0"
    },
    {
      "children": [
        36
      ],
      "matrix": [
        100.0,
        0.0,
        0.0,
        0.0,
        0.0,
        -1.629206793918314e-05,
        -99.99999999999868,
        0.0,
        0.0,
        99.99999999999868,
        -1.629206793918314e-05,
        0.0,
        4.999999523162842,
        66.94577026367188,
        104.5662841796875,
        1.0
      ],
      "name": "modular-box-group-01.000"
    },
    {
      "mesh": 16,
      "name": "modular-box-group-01.000_electrical boxes_0"
    },
    {
      "children": [
        38
      ],
      "matrix": [
        100.0,
        0.0,
        0.0,
        0.0,
        0.0,
        -1.629206793918314e-05,
        -99.99999999999868,
        0.0,
        0.0,
        99.99999999999868,
        -1.629206793918314e-05,
        0.0,
        5.000000953674316,
        96.36157989501953,
        104.5662841796875,
        1.0
      ],
      "name": "modular-box-group-01.001"
    },
    {
      "mesh": 17,
      "name": "modular-box-group-01.001_electrical boxes_0"
    },
    {
      "children": [
        40
      ],
      "matrix": [
        100.0,
        0.0,
        0.0,
        0.0,
        0.0,
        -1.629206793918314e-05,
        -99.99999999999868,
        0.0,
        0.0,
        99.99999999999868,
        -1.629206793918314e-05,
        0.0,
        4.999999523162842,
        98.09319305419922,
        104.5662612915039,
        1.0
      ],
      "name": "modular-box-group-01.002"
    },
    {
      "mesh": 18,
      "name": "modular-box-group-01.002_electrical boxes_0"
    },
    {
      "children": [
        42
      ],
      "matrix": [
        100.0,
        0.0,
        0.0,
        0.0,
        0.0,
        -1.629206793918314e-05,
        -99.99999999999868,
        0.0,
        0.0,
        99.99999999999868,
        -1.629206793918314e-05,
        0.0,
        10.718398094177246,
        66.9457778930664,
        104.56631469726563,
        1.0
      ],
      "name": "modular-box-group-01.003"
    },
    {
      "mesh": 19,
      "name": "modular-box-group-01.003_electrical boxes_0"
    },
    {
      "children": [
        44
      ],
      "matrix": [
        100.0,
        0.0,
        0.0,
        0.0,
        0.0,
        -1.629206793918314e-05,
        -99.99999999999868,
        0.0,
        0.0,
        99.99999999999868,
        -1.629206793918314e-05,
        0.0,
        4.999999523162842,
        24.10063362121582,
        90.19541931152344,
        1.0
      ],
      "name": "modular-box-group-03.000"
    },
    {
      "mesh": 20,
      "name": "modular-box-group-03.000_electrical boxes_0"
    },
    {
      "children": [
        46
      ],
      "matrix": [
        100.0,
        0.0,
        0.0,
        0.0,
        0.0,
        -1.629206793918314e-05,
        -99.99999999999868,
        0.0,
        0.0,
        99.99999999999868,
        -1.629206793918314e-05,
        0.0,
        5.000000953674316,
        24.100624084472656,
        60.77965545654297,
        1.0
      ],
      "name": "modular-box-group-03.001"
    },
    {
      "mesh": 21,
      "name": "modular-box-group-03.001_electrical boxes_0"
    },
    {
      "children": [
        48
      ],
      "matrix": [
        100.0,
        0.0,
        0.0,
        0.0,
        0.0,
        -1.629206793918314e-05,
        -99.99999999999868,
        0.0,
        0.0,
        99.99999999999868,
        -1.629206793918314e-05,
        0.0,
        4.999999523162842,
        24.10062599182129,
        59.04799270629883,
        1.0
      ],
      "name": "modular-box-group-03.002"
    },
    {
      "mesh": 22,
      "name": "modular-box-group-03.002_electrical boxes_0"
    },
    {
      "children": [
        50
      ],
      "matrix": [
        100.0,
        0.0,
        0.0,
        0.0,
        0.0,
        -1.629206793918314e-05,
        -99.99999999999868,
        0.0,
        0.0,
        99.99999999999868,
        -1.629206793918314e-05,
        0.0,
        10.718398094177246,
        24.10059356689453,
        90.19538879394531,
        1.0
      ],
      "name": "modular-box-group-03.003"
    },
    {
      "mesh": 23,
      "name": "modular-box-group-03.003_electrical boxes_0"
    },
    {
      "children": [
        52
      ],
      "matrix": [
        100.0,
        0.0,
        0.0,
        0.0,
        0.0,
        -1.629206793918314e-05,
        -99.99999999999868,
        0.0,
        0.0,
        99.99999999999868,
        -1.629206793918314e-05,
        0.0,
        4.999999523162842,
        83.37234497070313,
        -64.52090454101563,
        1.0
      ],
      "name": "modular-box-group-04.000"
    },
    {
      "mesh": 24,
      "name": "modular-box-group-04.000_electrical boxes_0"
    },
    {
      "children": [
        54
      ],
      "matrix": [
        100.0,
        0.0,
        0.0,
        0.0,
        0.0,
        -1.629206793918314e-05,
        -99.99999999999868,
        0.0,
        0.0,
        99.99999999999868,
        -1.629206793918314e-05,
        0.0,
        5.000000953674316,
        112.78810119628906,
        -64.52088165283203,
        1.0
      ],
      "name": "modular-box-group-04.001"
    },
    {
      "mesh": 25,
      "name": "modular-box-group-04.001_electrical boxes_0"
    },
    {
      "children": [
        56
      ],
      "matrix": [
        100.0,
        0.0,
        0.0,
        0.0,
        0.0,
        -1.629206793918314e-05,
        -99.99999999999868,
        0.0,
        0.0,
        99.99999999999868,
        -1.629206793918314e-05,
        0.0,
        4.999999523162842,
        114.5197982788086,
        -64.52088165283203,
        1.0
      ],
      "name": "modular-box-group-04.002"
    },
    {
      "mesh": 26,
      "name": "modular-box-group-04.002_electrical boxes_0"
    },
    {
      "children": [
        58
      ],
      "matrix": [
        100.0,
        0.0,
        0.0,
        0.0,
        0.0,
        -1.629206793918314e-05,
        -99.99999999999868,
        0.0,
        0.0,
        99.99999999999868,
        -1.629206793918314e-05,
        0.0,
        10.718398094177246,
        83.37236785888672,
        -64.52095031738281,
        1.0
      ],
      "name": "modular-box-group-04.003"
    },
    {
      "mesh": 27,
      "name": "modular-box-group-04.003_electrical boxes_0"
    },
    {
      "children": [
        60
      ],
      "matrix": [
        100.0,
        0.0,
        0.0,
        0.0,
        0.0,
        -1.629206793918314e-05,
        -99.99999999999868,
        0.0,
        0.0,
        99.99999999999868,
        -1.629206793918314e-05,
        0.0,
        4.999998092651367,
        54.58681106567383,
        -57.44176483154297,
        1.0
      ],
      "name": "modular-box-group-04.004"
    },
    {
      "mesh": 28,
      "name": "modular-box-group-04.004_electrical boxes_0"
    },
    {
      "children": [
        62
      ],
      "matrix": [
        100.0,
        0.0,
        0.0,
        0.0,
        0.0,
        -1.629206793918314e-05,
        -99.99999999999868,
        0.0,
        0.0,
        99.99999999999868,
        -1.629206793918314e-05,
        0.0,
        5.000000476837158,
        27.117311477661133,
        -57.4417724609375,
        1.0
      ],
      "name": "modular-tube-b01"
    },
    {
      "mesh": 29,
      "name": "modular-tube-b01_electrical boxes_0"
    },
    {
      "children": [
        64
      ],
      "matrix": [
        100.0,
        0.0,
        0.0,
        0.0,
        0.0,
        -1.629206793918314e-05,
        -99.99999999999868,
        0.0,
        0.0,
        99.99999999999868,
        -1.629206793918314e-05,
        0.0,
        4.999998092651367,
        54.58681106567383,
        -64.52090454101563,
        1.0
      ],
      "name": "modular-box-group-04.005"
    },
    {
      "mesh": 30,
      "name": "modular-box-group-04.005_electrical boxes_0"
    },
    {
      "children": [
        66
      ],
      "matrix": [
        100.0,
        0.0,
        0.0,
        0.0,
        0.0,
        -1.629206793918314e-05,
        -99.99999999999868,
        0.0,
        0.0,
        99.99999999999868,
        -1.629206793918314e-05,
        0.0,
        5.000000476837158,
        27.117311477661133,
        -64.52091979980469,
        1.0
      ],
      "name": "modular-tube-b02"
    },
    {
      "mesh": 31,
      "name": "modular-tube-b02_electrical boxes_0"
    },
    {
      "children": [
        68
      ],
      "matrix": [
        100.0,
        0.0,
        0.0,
        0.0,
        0.0,
        -1.629206793918314e-05,
        -99.99999999999868,
        0.0,
        0.0,
        99.99999999999868,
        -1.629206793918314e-05,
        0.0,
        4.999998092651367,
        54.58681106567383,
        -71.60005950927734,
        1.0
      ],
      "name": "modular-box-group-04.006"
    },
    {
      "mesh": 32,
      "name": "modular-box-group-04.006_electrical boxes_0"
    },
    {
      "children": [
        70
      ],
      "matrix": [
        100.0,
        0.0,
        0.0,
        0.0,
        0.0,
        -1.629206793918314e-05,
        -99.99999999999868,
        0.0,
        0.0,
        99.99999999999868,
        -1.629206793918314e-05,
        0.0,
        5.000000476837158,
        27.117311477661133,
        -71.60006713867188,
        1.0
      ],
      "name": "modular-tube-b03"
    },
    {
      "mesh": 33,
      "name": "modular-tube-b03_electrical boxes_0"
    }
  ],
  "samplers": [
    {
      "magFilter": 9729,
      "minFilter": 9987,
      "wrapS": 10497,
      "wrapT": 10497
    }
  ],
  "scene": 0,
  "scenes": [
    {
      "name": "Sketchfab_Scene",
      "nodes": [
        0
      ]
    }
  ],
  "textures": [
    {
      "sampler": 0,
      "source": 0
    },
    {
      "sampler": 0,
      "source": 1
    },
    {
      "sampler": 0,
      "source": 2
    }
  ]
}
